<?xml version="1.0" standalone="no"?>
 <!DOCTYPE svg PUBLIC "-//W3C//DTD SVG 1.1//EN" 
 "http://www.w3.org/Graphics/SVG/1.1/DTD/svg11.dtd"> 
<svg
  xmlns:svg="http://www.w3.org/2000/svg"
  xmlns="http://www.w3.org/2000/svg"
  xmlns:xlink="http://www.w3.org/1999/xlink"
  version="1.1"
  width="297.0022mm" height="210.0072mm" viewBox="0.0000 0.0000 297.0022 210.0072">
<title>SVG Image created as HydraOswietlenie-B_Cu.svg date 2025/04/30 13:57:58 </title>
  <desc>Image generated by PCBNEW </desc>
<g style="fill:#000000; fill-opacity:1.0000;stroke:#000000; stroke-opacity:1.0000;
stroke-linecap:round; stroke-linejoin:round;"
 transform="translate(0 0) scale(1 1)">
</g>
<g style="fill:#000000; fill-opacity:1.0000; stroke:none;">
<circle cx="122.3000" cy="102.5100" r="0.8000" /> 
</g>
<g style="fill:#000000; fill-opacity:1.0000; stroke:none;">
<circle cx="122.3000" cy="94.8900" r="0.8000" /> 
<circle cx="138.1100" cy="107.6000" r="0.8000" /> 
</g>
<g style="fill:#000000; fill-opacity:1.0000; stroke:none;">
<circle cx="130.4900" cy="107.6000" r="0.8000" /> 
<circle cx="134.4000" cy="113.2000" r="1.7500" /> 
</g>
<g style="fill:#000000; fill-opacity:1.0000; stroke:none;">
<circle cx="130.2000" cy="113.2000" r="1.7500" /> 
</g>
<g style="fill:#000000; fill-opacity:1.0000; stroke:none;">
<circle cx="126.0000" cy="113.2000" r="1.7500" /> 
<path style="fill:#000000; fill-opacity:1.0000; stroke:none;fill-rule:evenodd;"
d="M 163.4958,91.8625
163.3907,91.8472
163.2818,91.7939
163.1961,91.7082
163.1428,91.5993
163.1275,91.4942
163.1275,88.2308
163.1428,88.1257
163.1961,88.0168
163.2818,87.9311
163.3907,87.8778
163.4958,87.8625
166.7592,87.8625
166.8643,87.8778
166.9732,87.9311
167.0589,88.0168
167.1122,88.1257
167.1275,88.2308
167.1275,91.4942
167.1122,91.5993
167.0589,91.7082
166.9732,91.7939
166.8643,91.8472
166.7592,91.8625
Z" /> 
</g>
<g style="fill:#000000; fill-opacity:1.0000; stroke:none;">
<circle cx="165.1275" cy="84.4025" r="2.0000" /> 
</g>
<g style="fill:#000000; fill-opacity:1.0000; stroke:none;">
<circle cx="165.1275" cy="78.9425" r="2.0000" /> 
</g>
<g style="fill:#000000; fill-opacity:1.0000; stroke:none;">
<circle cx="145.7200" cy="101.2800" r="0.9525" /> 
</g>
<g style="fill:#000000; fill-opacity:1.0000; stroke:none;">
<circle cx="145.7200" cy="98.7400" r="0.9525" /> 
</g>
<g style="fill:#000000; fill-opacity:1.0000; stroke:none;">
<circle cx="145.7200" cy="96.2000" r="0.9525" /> 
</g>
<g style="fill:#000000; fill-opacity:1.0000; stroke:none;">
<circle cx="145.7200" cy="93.6600" r="0.9525" /> 
</g>
<g style="fill:#000000; fill-opacity:1.0000; stroke:none;">
<circle cx="145.7200" cy="88.5800" r="0.9525" /> 
</g>
<g style="fill:#000000; fill-opacity:1.0000; stroke:none;">
<circle cx="145.7200" cy="91.1200" r="0.9525" /> 
</g>
<g style="fill:#000000; fill-opacity:1.0000; stroke:none;">
<circle cx="130.4800" cy="83.5000" r="0.9525" /> 
</g>
<g style="fill:#000000; fill-opacity:1.0000; stroke:none;">
<circle cx="145.7200" cy="83.5000" r="0.9525" /> 
</g>
<g style="fill:#000000; fill-opacity:1.0000; stroke:none;">
<circle cx="130.4800" cy="86.0400" r="0.9525" /> 
</g>
<g style="fill:#000000; fill-opacity:1.0000; stroke:none;">
<circle cx="130.4800" cy="88.5800" r="0.9525" /> 
</g>
<g style="fill:#000000; fill-opacity:1.0000; stroke:none;">
<circle cx="130.4800" cy="91.1200" r="0.9525" /> 
</g>
<g style="fill:#000000; fill-opacity:1.0000; stroke:none;">
<circle cx="130.4800" cy="93.6600" r="0.9525" /> 
</g>
<g style="fill:#000000; fill-opacity:1.0000; stroke:none;">
<circle cx="130.4800" cy="96.2000" r="0.9525" /> 
</g>
<g style="fill:#000000; fill-opacity:1.0000; stroke:none;">
<circle cx="130.4800" cy="98.7400" r="0.9525" /> 
</g>
<g style="fill:#000000; fill-opacity:1.0000; stroke:none;">
<circle cx="130.4800" cy="101.2800" r="0.9525" /> 
</g>
<g style="fill:#000000; fill-opacity:1.0000; stroke:none;">
<circle cx="145.7200" cy="86.0400" r="0.9525" /> 
<path style="fill:#000000; fill-opacity:1.0000; stroke:none;fill-rule:evenodd;"
d="M 155.3000,82.2677
153.3000,82.2677
153.3000,80.2677
155.3000,80.2677
Z" /> 
</g>
<g style="fill:#000000; fill-opacity:1.0000; stroke:none;">
<circle cx="154.3000" cy="76.2677" r="1.0000" /> 
<path style="fill:#000000; fill-opacity:1.0000; stroke:none;fill-rule:evenodd;"
d="M 112.5323,114.7000
112.5323,112.7000
114.5323,112.7000
114.5323,114.7000
Z" /> 
</g>
<g style="fill:#000000; fill-opacity:1.0000; stroke:none;">
<circle cx="118.5323" cy="113.7000" r="1.0000" /> 
<path style="fill:#000000; fill-opacity:1.0000; stroke:none;fill-rule:evenodd;"
d="M 155.6500,107.6500
153.4500,107.6500
153.4500,105.4500
155.6500,105.4500
Z" /> 
</g>
<g style="fill:#000000; fill-opacity:1.0000; stroke:none;">
<circle cx="154.5500" cy="96.3900" r="1.1000" /> 
<circle cx="150.6900" cy="90.3000" r="0.8000" /> 
</g>
<g style="fill:#000000; fill-opacity:1.0000; stroke:none;">
<circle cx="158.3100" cy="90.3000" r="0.8000" /> 
<path style="fill:#000000; fill-opacity:1.0000; stroke:none;fill-rule:evenodd;"
d="M 162.8500,114.8000
162.8310,114.8957
162.7768,114.9768
162.6957,115.0310
162.6000,115.0500
160.4000,115.0500
160.3043,115.0310
160.2232,114.9768
160.1690,114.8957
160.1500,114.8000
160.1500,111.6000
160.1690,111.5043
160.2232,111.4232
160.3043,111.3690
160.4000,111.3500
162.6000,111.3500
162.6957,111.3690
162.7768,111.4232
162.8310,111.5043
162.8500,111.6000
Z" /> 
</g>
<g style="fill:none; 
stroke:#000000; stroke-width:2.7000; stroke-opacity:1; 
stroke-linecap:round; stroke-linejoin:round;">
<path d="M161.5000 108.2000
L161.5000 107.2000
" />
<path style="fill:#000000; fill-opacity:1.0000; stroke:none;fill-rule:evenodd;"
d="M 114.8200,108.3000
114.8200,106.1000
117.0200,106.1000
117.0200,108.3000
Z" /> 
</g>
<g style="fill:#000000; fill-opacity:1.0000; stroke:none;">
<circle cx="126.0800" cy="107.2000" r="1.1000" /> 
<circle cx="152.0157" cy="113.0871" r="1.7500" /> 
</g>
<g style="fill:#000000; fill-opacity:1.0000; stroke:none;">
<circle cx="147.8157" cy="113.0871" r="1.7500" /> 
</g>
<g style="fill:#000000; fill-opacity:1.0000; stroke:none;">
<circle cx="143.6157" cy="113.0871" r="1.7500" /> 
</g>
<g style="fill:#000000; fill-opacity:1.0000; stroke:none;">
<circle cx="126.2000" cy="98.8100" r="0.8000" /> 
</g>
<g style="fill:#000000; fill-opacity:1.0000; stroke:none;">
<circle cx="126.2000" cy="91.1900" r="0.8000" /> 
<circle cx="158.9000" cy="85.9000" r="0.8000" /> 
</g>
<g style="fill:#000000; fill-opacity:1.0000; stroke:none;">
<circle cx="151.2800" cy="85.9000" r="0.8000" /> 
<path style="fill:#000000; fill-opacity:1.0000; stroke:none;fill-rule:evenodd;"
d="M 109.9000,104.7500
109.8043,104.7310
109.7232,104.6768
109.6690,104.5957
109.6500,104.5000
109.6500,102.3000
109.6690,102.2043
109.7232,102.1232
109.8043,102.0690
109.9000,102.0500
113.1000,102.0500
113.1957,102.0690
113.2768,102.1232
113.3310,102.2043
113.3500,102.3000
113.3500,104.5000
113.3310,104.5957
113.2768,104.6768
113.1957,104.7310
113.1000,104.7500
Z" /> 
</g>
<g style="fill:none; 
stroke:#000000; stroke-width:2.7000; stroke-opacity:1; 
stroke-linecap:round; stroke-linejoin:round;">
<path d="M111.0000 99.2000
L112.0000 99.2000
" />
<path d="M111.0000 95.0000
L112.0000 95.0000
" />
<path d="M111.0000 90.8000
L112.0000 90.8000
" />
<path d="M111.0000 86.6000
L112.0000 86.6000
" />
<path d="M116.5000 103.4000
L117.5000 103.4000
" />
<path d="M116.5000 99.2000
L117.5000 99.2000
" />
<path d="M116.5000 95.0000
L117.5000 95.0000
" />
<path d="M116.5000 90.8000
L117.5000 90.8000
" />
<path d="M116.5000 86.6000
L117.5000 86.6000
" />
</g>
<g style="fill:#000000; fill-opacity:1.0000; stroke:none;">
<circle cx="143.5900" cy="107.3000" r="0.8000" /> 
</g>
<g style="fill:#000000; fill-opacity:1.0000; stroke:none;">
<circle cx="151.2100" cy="107.3000" r="0.8000" /> 
<circle cx="164.5000" cy="102.6000" r="0.6000" /> 
</g>
<g style="fill:#000000; fill-opacity:1.0000; stroke:none;">
<circle cx="164.5000" cy="95.4000" r="0.6000" /> 
</g>
<g style="fill:#000000; fill-opacity:1.0000; stroke:none;">
<circle cx="161.5000" cy="102.6000" r="0.6000" /> 
</g>
<g style="fill:#000000; fill-opacity:1.0000; stroke:none;">
<circle cx="161.5000" cy="95.4000" r="0.6000" /> 
</g>
<g style="fill:none; 
stroke:#000000; stroke-width:3.0000; stroke-opacity:1; 
stroke-linecap:round; stroke-linejoin:round;">
<path d="M131.8000 117.0000
L134.4158 114.3842
" />
<path d="M160.9500 75.3500
L154.9323 81.3677
" />
</g>
<g style="fill:none; 
stroke:#000000; stroke-width:1.5000; stroke-opacity:1; 
stroke-linecap:round; stroke-linejoin:round;">
<path d="M134.4158 112.6871
L134.4158 112.9157
" />
</g>
<g style="fill:none; 
stroke:#000000; stroke-width:3.0000; stroke-opacity:1; 
stroke-linecap:round; stroke-linejoin:round;">
<path d="M171.8500 108.8800
L171.8500 77.7500
" />
<path d="M115.7200 107.2000
L113.2000 109.7200
" />
<path d="M111.5000 105.5800
L113.1200 107.2000
" />
<path d="M152.5000 113.6000
L155.9000 117.0000
" />
</g>
<g style="fill:none; 
stroke:#000000; stroke-width:2.8000; stroke-opacity:1; 
stroke-linecap:round; stroke-linejoin:round;">
<path d="M169.4500 75.3500
L169.3000 75.2000
" />
</g>
<g style="fill:none; 
stroke:#000000; stroke-width:3.0000; stroke-opacity:1; 
stroke-linecap:round; stroke-linejoin:round;">
<path d="M154.9323 81.3677
L147.8523 81.3677
" />
</g>
<g style="fill:none; 
stroke:#000000; stroke-width:2.0000; stroke-opacity:1; 
stroke-linecap:round; stroke-linejoin:round;">
<path d="M152.5000 113.6000
L152.5000 112.5871
" />
<path d="M134.4158 112.6871
L134.4158 112.8657
" />
</g>
<g style="fill:none; 
stroke:#000000; stroke-width:3.0000; stroke-opacity:1; 
stroke-linecap:round; stroke-linejoin:round;">
<path d="M113.2000 109.7200
L113.2000 114.5000
" />
</g>
<g style="fill:none; 
stroke:#000000; stroke-width:2.5000; stroke-opacity:1; 
stroke-linecap:round; stroke-linejoin:round;">
<path d="M161.2500 75.0500
L161.1000 75.2000
" />
<path d="M147.8523 81.3677
L145.7200 83.5000
" />
</g>
<g style="fill:none; 
stroke:#000000; stroke-width:3.0000; stroke-opacity:1; 
stroke-linecap:round; stroke-linejoin:round;">
<path d="M115.7000 117.0000
L131.8000 117.0000
" />
</g>
<g style="fill:none; 
stroke:#000000; stroke-width:2.5000; stroke-opacity:1; 
stroke-linecap:round; stroke-linejoin:round;">
<path d="M169.3000 75.2000
L169.1500 75.0500
" />
</g>
<g style="fill:none; 
stroke:#000000; stroke-width:3.0000; stroke-opacity:1; 
stroke-linecap:round; stroke-linejoin:round;">
<path d="M134.4158 114.7157
L136.6500 116.9500
" />
</g>
<g style="fill:none; 
stroke:#000000; stroke-width:2.5000; stroke-opacity:1; 
stroke-linecap:round; stroke-linejoin:round;">
<path d="M169.1500 75.0500
L161.2500 75.0500
" />
</g>
<g style="fill:none; 
stroke:#000000; stroke-width:3.0000; stroke-opacity:1; 
stroke-linecap:round; stroke-linejoin:round;">
<path d="M155.9000 117.0000
L163.7300 117.0000
" />
<path d="M115.9200 107.2000
L115.7200 107.2000
" />
<path d="M134.4158 114.3842
L134.4158 113.7843
" />
<path d="M163.7300 117.0000
L171.8500 108.8800
" />
<path d="M136.6500 116.9500
L149.4000 116.9500
" />
<path d="M113.2000 114.5000
L115.7000 117.0000
" />
<path d="M171.8500 77.7500
L169.4500 75.3500
" />
</g>
<g style="fill:none; 
stroke:#000000; stroke-width:2.8000; stroke-opacity:1; 
stroke-linecap:round; stroke-linejoin:round;">
<path d="M161.1000 75.2000
L160.9500 75.3500
" />
</g>
<g style="fill:none; 
stroke:#000000; stroke-width:3.0000; stroke-opacity:1; 
stroke-linecap:round; stroke-linejoin:round;">
<path d="M152.5000 113.8500
L152.5000 113.6000
" />
</g>
<g style="fill:none; 
stroke:#000000; stroke-width:2.0000; stroke-opacity:1; 
stroke-linecap:round; stroke-linejoin:round;">
<path d="M134.4158 113.7843
L134.4158 112.6871
" />
</g>
<g style="fill:none; 
stroke:#000000; stroke-width:3.0000; stroke-opacity:1; 
stroke-linecap:round; stroke-linejoin:round;">
<path d="M149.4000 116.9500
L152.5000 113.8500
" />
<path d="M111.5000 103.4000
L111.5000 105.5800
" />
<path d="M134.4158 112.9157
L134.4158 114.7157
" />
<path d="M113.1200 107.2000
L115.9200 107.2000
" />
<path d="M139.1871 112.5871
L144.1000 112.5871
" />
<path d="M117.0000 103.4000
L118.4500 103.4000
" />
<path d="M165.1275 78.9425
L162.4575 78.9425
" />
<path d="M131.4000 104.8000
L135.4000 104.8000
" />
<path d="M135.4000 104.8000
L142.4000 97.8000
" />
<path d="M155.5000 85.9000
L151.2800 85.9000
" />
<path d="M124.7800 108.5000
L123.5000 108.5000
" />
<path d="M131.4000 104.8000
L139.1871 112.5871
" />
</g>
<g style="fill:none; 
stroke:#000000; stroke-width:2.0000; stroke-opacity:1; 
stroke-linecap:round; stroke-linejoin:round;">
<path d="M168.6000 92.9000
L166.1000 95.4000
" />
<path d="M165.1275 78.9425
L166.6425 78.9425
" />
</g>
<g style="fill:none; 
stroke:#000000; stroke-width:3.0000; stroke-opacity:1; 
stroke-linecap:round; stroke-linejoin:round;">
<path d="M125.3028 113.4000
L126.0157 112.6871
" />
<path d="M154.2000 76.3677
L154.3000 76.2677
" />
<path d="M146.0323 76.3677
L154.2000 76.3677
" />
</g>
<g style="fill:none; 
stroke:#000000; stroke-width:2.0000; stroke-opacity:1; 
stroke-linecap:round; stroke-linejoin:round;">
<path d="M166.6425 78.9425
L168.6000 80.9000
" />
</g>
<g style="fill:none; 
stroke:#000000; stroke-width:3.0000; stroke-opacity:1; 
stroke-linecap:round; stroke-linejoin:round;">
<path d="M118.4500 103.4000
L122.2500 107.2000
" />
<path d="M122.2500 107.2000
L126.0800 107.2000
" />
</g>
<g style="fill:none; 
stroke:#000000; stroke-width:2.0000; stroke-opacity:1; 
stroke-linecap:round; stroke-linejoin:round;">
<path d="M168.6000 80.9000
L168.6000 92.9000
" />
</g>
<g style="fill:none; 
stroke:#000000; stroke-width:0.8000; stroke-opacity:1; 
stroke-linecap:round; stroke-linejoin:round;">
<path d="M164.5000 95.4000
L164.5000 102.6000
" />
</g>
<g style="fill:none; 
stroke:#000000; stroke-width:3.0000; stroke-opacity:1; 
stroke-linecap:round; stroke-linejoin:round;">
<path d="M128.4000 104.8000
L131.4000 104.8000
" />
<path d="M123.5000 108.5000
L118.6000 113.4000
" />
</g>
<g style="fill:none; 
stroke:#000000; stroke-width:2.5000; stroke-opacity:1; 
stroke-linecap:round; stroke-linejoin:round;">
<path d="M162.4575 78.9425
L155.5000 85.9000
" />
</g>
<g style="fill:none; 
stroke:#000000; stroke-width:3.0000; stroke-opacity:1; 
stroke-linecap:round; stroke-linejoin:round;">
<path d="M118.6000 113.4000
L125.3028 113.4000
" />
<path d="M142.4000 80.0000
L146.0323 76.3677
" />
</g>
<g style="fill:none; 
stroke:#000000; stroke-width:2.0000; stroke-opacity:1; 
stroke-linecap:round; stroke-linejoin:round;">
<path d="M166.1000 95.4000
L164.5000 95.4000
" />
</g>
<g style="fill:none; 
stroke:#000000; stroke-width:1.5000; stroke-opacity:1; 
stroke-linecap:round; stroke-linejoin:round;">
<path d="M151.2800 85.9000
L151.0800 86.1000
" />
</g>
<g style="fill:none; 
stroke:#000000; stroke-width:3.0000; stroke-opacity:1; 
stroke-linecap:round; stroke-linejoin:round;">
<path d="M142.4000 97.8000
L142.4000 80.0000
" />
</g>
<g style="fill:none; 
stroke:#000000; stroke-width:1.5000; stroke-opacity:1; 
stroke-linecap:round; stroke-linejoin:round;">
<path d="M143.3000 86.1000
L142.4000 87.0000
" />
</g>
<g style="fill:none; 
stroke:#000000; stroke-width:3.0000; stroke-opacity:1; 
stroke-linecap:round; stroke-linejoin:round;">
<path d="M126.0800 107.2000
L124.7800 108.5000
" />
<path d="M124.7000 108.5000
L128.4000 104.8000
" />
</g>
<g style="fill:none; 
stroke:#000000; stroke-width:1.5000; stroke-opacity:1; 
stroke-linecap:round; stroke-linejoin:round;">
<path d="M151.0800 86.1000
L143.3000 86.1000
" />
</g>
<g style="fill:none; 
stroke:#000000; stroke-width:0.6000; stroke-opacity:1; 
stroke-linecap:round; stroke-linejoin:round;">
<path d="M112.5500 95.0000
L114.7000 92.8500
" />
<path d="M111.5000 95.0000
L112.5500 95.0000
" />
<path d="M114.7000 92.8500
L127.4500 92.8500
" />
<path d="M127.4500 92.8500
L129.1800 91.1200
" />
<path d="M129.1800 91.1200
L130.4800 91.1200
" />
<path d="M126.2000 98.8100
L130.4100 98.8100
" />
<path d="M130.4100 98.8100
L130.4800 98.7400
" />
</g>
<g style="fill:none; 
stroke:#000000; stroke-width:0.5000; stroke-opacity:1; 
stroke-linecap:round; stroke-linejoin:round;">
<path d="M157.0000 105.6500
L147.5500 96.2000
" />
<path d="M147.5500 96.2000
L145.7200 96.2000
" />
<path d="M161.5000 95.4000
L161.5000 102.6000
" />
<path d="M159.6500 110.4250
L157.0000 107.7750
" />
<path d="M157.0000 107.7750
L157.0000 105.6500
" />
<path d="M163.2500 110.4250
L159.6500 110.4250
" />
<path d="M164.9250 106.0250
L164.9250 108.7500
" />
<path d="M161.5000 102.6000
L164.9250 106.0250
" />
<path d="M164.9250 108.7500
L163.2500 110.4250
" />
</g>
<g style="fill:none; 
stroke:#000000; stroke-width:0.6000; stroke-opacity:1; 
stroke-linecap:round; stroke-linejoin:round;">
<path d="M122.3000 102.5100
L123.6100 101.2000
" />
<path d="M130.4000 101.2000
L130.4800 101.2800
" />
<path d="M123.6100 101.2000
L130.4000 101.2000
" />
</g>
<g style="fill:none; 
stroke:#000000; stroke-width:0.8000; stroke-opacity:1; 
stroke-linecap:round; stroke-linejoin:round;">
<path d="M147.8000 100.0000
L146.5400 98.7400
" />
<path d="M147.8000 102.0000
L147.8000 100.0000
" />
<path d="M143.5900 107.3000
L143.5900 106.2100
" />
<path d="M146.5400 98.7400
L145.7200 98.7400
" />
<path d="M143.5900 106.2100
L147.8000 102.0000
" />
<path d="M138.1100 106.6000
L140.5100 104.2000
" />
<path d="M140.5100 104.2000
L142.8000 104.2000
" />
<path d="M142.8000 104.2000
L145.7200 101.2800
" />
<path d="M138.1100 107.6000
L138.1100 106.6000
" />
<path d="M145.7200 93.6600
L147.3300 93.6600
" />
<path d="M147.3300 93.6600
L150.6900 90.3000
" />
</g>
<g style="fill:none; 
stroke:#000000; stroke-width:3.0000; stroke-opacity:1; 
stroke-linecap:round; stroke-linejoin:round;">
<path d="M161.9000 92.7000
L159.0000 92.7000
" />
<path d="M154.8000 100.0000
L161.5000 106.7000
" />
<path d="M164.9375 89.8625
L162.1500 92.6500
" />
<path d="M159.0000 92.7000
L154.8000 96.9000
" />
<path d="M162.1500 92.6500
L161.9500 92.6500
" />
<path d="M154.8000 96.9000
L154.8000 100.0000
" />
<path d="M161.5000 106.7000
L161.5000 107.7000
" />
</g>
<g style="fill:none; 
stroke:#000000; stroke-width:1.5000; stroke-opacity:1; 
stroke-linecap:round; stroke-linejoin:round;">
<path d="M164.9375 89.8625
L165.1275 89.8625
" />
</g>
<g style="fill:none; 
stroke:#000000; stroke-width:3.0000; stroke-opacity:1; 
stroke-linecap:round; stroke-linejoin:round;">
<path d="M161.9500 92.6500
L161.9000 92.7000
" />
</g>
<g style="fill:none; 
stroke:#000000; stroke-width:1.5000; stroke-opacity:1; 
stroke-linecap:round; stroke-linejoin:round;">
<path d="M154.5500 108.7000
L159.0500 113.2000
" />
<path d="M159.0500 113.2000
L161.5000 113.2000
" />
<path d="M154.5500 106.5500
L154.5500 108.7000
" />
</g>
<g style="fill:none; 
stroke:#000000; stroke-width:0.6000; stroke-opacity:1; 
stroke-linecap:round; stroke-linejoin:round;">
<path d="M117.0000 99.2000
L117.3000 98.9000
" />
<path d="M117.3000 98.9000
L123.5000 98.9000
" />
<path d="M129.2300 97.4500
L130.4800 96.2000
" />
<path d="M123.5000 98.9000
L124.9500 97.4500
" />
<path d="M124.9500 97.4500
L129.2300 97.4500
" />
<path d="M125.7000 96.3500
L128.3900 93.6600
" />
<path d="M113.5000 97.2000
L118.1500 97.2000
" />
<path d="M118.1500 97.2000
L119.0000 96.3500
" />
<path d="M119.0000 96.3500
L125.7000 96.3500
" />
<path d="M111.5000 99.2000
L113.5000 97.2000
" />
<path d="M128.3900 93.6600
L130.4800 93.6600
" />
<path d="M113.5000 88.8000
L130.2600 88.8000
" />
<path d="M111.5000 90.8000
L113.5000 88.8000
" />
<path d="M130.2600 88.8000
L130.4800 88.5800
" />
<path d="M114.6000 83.5000
L130.4800 83.5000
" />
<path d="M111.5000 86.6000
L114.6000 83.5000
" />
<path d="M122.1900 95.0000
L122.3000 94.8900
" />
<path d="M117.0000 95.0000
L122.1900 95.0000
" />
<path d="M125.8100 90.8000
L126.2000 91.1900
" />
<path d="M117.0000 90.8000
L125.8100 90.8000
" />
<path d="M117.5600 86.0400
L130.4800 86.0400
" />
<path d="M117.0000 86.6000
L117.5600 86.0400
" />
</g>
<g style="fill:none; 
stroke:#000000; stroke-width:0.8000; stroke-opacity:1; 
stroke-linecap:round; stroke-linejoin:round;">
<path d="M129.7400 112.2113
L130.2157 112.6871
" />
<path d="M130.4900 107.6000
L129.7400 108.3500
" />
<path d="M129.7400 108.3500
L129.7400 112.2113
" />
<path d="M148.3000 112.5871
L148.3000 110.8000
" />
<path d="M148.3000 110.8000
L151.2100 107.8900
" />
<path d="M151.2100 107.8900
L151.2100 107.3000
" />
<path d="M158.9000 89.7100
L158.9000 85.9000
" />
<path d="M158.3100 90.3000
L158.9000 89.7100
" />
<path d="M160.3975 84.4025
L165.1275 84.4025
" />
<path d="M158.9000 85.9000
L160.3975 84.4025
" />
</g> 
</svg>
