M48
; DRILL file {KiCad 9.0.0} date 2025-04-28T19:02:42+0200
; FORMAT={-:-/ absolute / metric / decimal}
; #@! TF.CreationDate,2025-04-28T19:02:42+02:00
; #@! TF.GenerationSoftware,Kicad,Pcbnew,9.0.0
; #@! TF.FileFunction,Plated,1,2,PTH
FMAT,2
METRIC
; #@! TA.AperFunction,Plated,PTH,ViaDrill
T1C0.600
; #@! TA.AperFunction,Plated,PTH,ComponentDrill
T2C0.800
; #@! TA.AperFunction,Plated,PTH,ComponentDrill
T3C1.000
; #@! TA.AperFunction,Plated,PTH,ComponentDrill
T4C1.100
; #@! TA.AperFunction,Plated,PTH,ComponentDrill
T5C1.270
; #@! TA.AperFunction,Plated,PTH,ComponentDrill
T6C1.800
; #@! TA.AperFunction,Plated,PTH,ComponentDrill
T7C1.810
%
G90
G05
T1
X161.5Y-95.4
X161.5Y-102.6
X164.5Y-95.4
X164.5Y-102.6
T2
X122.3Y-94.89
X122.3Y-102.51
X126.2Y-91.19
X126.2Y-98.81
X130.49Y-107.6
X138.11Y-107.6
X143.59Y-107.3
X150.69Y-90.3
X151.21Y-107.3
X151.28Y-85.9
X158.31Y-90.3
X158.9Y-85.9
T3
X113.532Y-113.7
X118.532Y-113.7
X154.3Y-76.268
X154.3Y-81.268
T4
X115.92Y-107.2
X126.08Y-107.2
X154.55Y-96.39
X154.55Y-106.55
T5
X130.48Y-83.5
X130.48Y-86.04
X130.48Y-88.58
X130.48Y-91.12
X130.48Y-93.66
X130.48Y-96.2
X130.48Y-98.74
X130.48Y-101.28
X145.72Y-83.5
X145.72Y-86.04
X145.72Y-88.58
X145.72Y-91.12
X145.72Y-93.66
X145.72Y-96.2
X145.72Y-98.74
X145.72Y-101.28
T6
X111.5Y-86.6
X111.5Y-90.8
X111.5Y-95.0
X111.5Y-99.2
X111.5Y-103.4
X117.0Y-86.6
X117.0Y-90.8
X117.0Y-95.0
X117.0Y-99.2
X117.0Y-103.4
X126.0Y-113.2
X130.2Y-113.2
X134.4Y-113.2
X143.616Y-113.087
X147.816Y-113.087
X152.016Y-113.087
X161.5Y-107.7
X161.5Y-113.2
T7
X165.127Y-78.942
X165.127Y-84.402
X165.127Y-89.862
M30
