  0
SECTION
  2
HEADER
  9
$ANGBASE
  50
0.0
  9
$ANGDIR
  70
1
  9
$MEASUREMENT
  70
1
  0
ENDSEC
  0
SECTION
  2
TABLES
  0
TABLE
  2
LTYPE
  70
4
  0
LTYPE
  5
40F
  2
CONTINUOUS
  70
0
  3
Solid line
  72
65
  73
0
  40
0.0
  0
LTYPE
  5
410
  2
DASHDOT
 70
0
  3
Dash Dot ____ _ ____ _
 72
65
 73
4
 40
2.0
 49
1.25
 49
-0.25
 49
0.25
 49
-0.25
  0
LTYPE
  5
411
  2
DASHED
 70
0
  3
Dashed __ __ __ __ __
 72
65
 73
2
 40
0.75
 49
0.5
 49
-0.25
  0
LTYPE
  5
43B
  2
DOTTED
 70
0
  3
Dotted .  .  .  .
 72
65
 73
2
 40
0.2
 49
0.0
 49
-0.2
  0
ENDTAB
  0
TABLE
  2
STYLE
  70
4
  0
STYLE
  2
KICAD
  70
0
  40
0
  41
1
  42
1
  50
0
  71
0
  3
isocp.shx
  0
STYLE
  2
KICADB
  70
0
  40
0
  41
1
  42
1
  50
0
  71
0
  3
isocp.shx
  0
STYLE
  2
KICADI
  70
0
  40
0
  41
1
  42
1
  50
15
  71
0
  3
isocp.shx
  0
STYLE
  2
KICADBI
  70
0
  40
0
  41
1
  42
1
  50
15
  71
0
  3
isocp.shx
  0
ENDTAB
  0
TABLE
  2
LAYER
  70
1
  0
LAYER
  2
BLACK
  70
0
  62
7
  6
CONTINUOUS
  0
ENDTAB
  0
ENDSEC
  0
SECTION
  2
ENTITIES
0
LINE
8
BLACK
6
CONTINUOUS
10
104.9299999999999926
20
-72.9500000000000028
11
173.6899999999999977
21
-72.9500000000000028
0
LINE
8
BLACK
6
CONTINUOUS
10
173.6899999999999977
20
-72.9500000000000028
11
173.6899999999999977
21
-122.4499999999999886
0
LINE
8
BLACK
6
CONTINUOUS
10
173.6899999999999977
20
-122.4499999999999886
11
104.9299999999999926
21
-122.4499999999999886
0
LINE
8
BLACK
6
CONTINUOUS
10
104.9299999999999926
20
-122.4499999999999886
11
104.9299999999999926
21
-72.9500000000000028
0
LINE
8
BLACK
6
CONTINUOUS
10
124.5
20
-119.
11
127.5
21
-122.
0
LINE
8
BLACK
6
CONTINUOUS
10
127.5
20
-119.
11
124.5
21
-122.
0
LINE
8
BLACK
6
CONTINUOUS
10
132.9000000000000057
20
-119.
11
135.9000000000000057
21
-122.
0
LINE
8
BLACK
6
CONTINUOUS
10
135.9000000000000057
20
-119.
11
132.9000000000000057
21
-122.
0
LINE
8
BLACK
6
CONTINUOUS
10
142.1157499999999914
20
-118.8870999999999896
11
145.1157499999999914
21
-121.8870999999999896
0
LINE
8
BLACK
6
CONTINUOUS
10
145.1157499999999914
20
-118.8870999999999896
11
142.1157499999999914
21
-121.8870999999999896
0
LINE
8
BLACK
6
CONTINUOUS
10
150.515749999999997
20
-118.8870999999999896
11
153.515749999999997
21
-121.8870999999999896
0
LINE
8
BLACK
6
CONTINUOUS
10
153.515749999999997
20
-118.8870999999999896
11
150.515749999999997
21
-121.8870999999999896
0
LINE
8
BLACK
6
CONTINUOUS
10
160.
20
-119.
11
163.
21
-122.
0
LINE
8
BLACK
6
CONTINUOUS
10
163.
20
-119.
11
160.
21
-122.
0
CIRCLE
8
BLACK
10
107.2999999999999972
20
-82.0999999999999943
40
1.5999999999999999
0
CIRCLE
8
BLACK
10
107.2999999999999972
20
-107.8999999999999915
40
1.5999999999999999
0
CIRCLE
8
BLACK
10
108.5300000000000011
20
-118.7999999999999972
40
1.5999999999999999
0
CIRCLE
8
BLACK
10
114.9699999999999989
20
-77.6199999999999903
40
1.5999999999999999
0
CIRCLE
8
BLACK
10
169.6200000000000045
20
-118.7999999999999972
40
1.5999999999999999
0
LINE
8
BLACK
6
CONTINUOUS
10
107.5127679999999941
20
-125.5898380000000003
11
107.5127679999999941
21
-123.5898380000000003
0
LINE
8
BLACK
6
CONTINUOUS
10
107.5127679999999941
20
-123.5898380000000003
11
107.9889579999999967
21
-123.5898380000000003
0
LINE
8
BLACK
6
CONTINUOUS
10
107.9889579999999967
20
-123.5898380000000003
11
108.2746729999999928
21
-123.6850759999999951
0
LINE
8
BLACK
6
CONTINUOUS
10
108.2746729999999928
20
-123.6850759999999951
11
108.4651489999999967
21
-123.875551999999999
0
LINE
8
BLACK
6
CONTINUOUS
10
108.4651489999999967
20
-123.875551999999999
11
108.5603869999999915
21
-124.0660279999999887
0
LINE
8
BLACK
6
CONTINUOUS
10
108.5603869999999915
20
-124.0660279999999887
11
108.6556250000000006
21
-124.4469799999999964
0
LINE
8
BLACK
6
CONTINUOUS
10
108.6556250000000006
20
-124.4469799999999964
11
108.6556250000000006
21
-124.7326949999999925
0
LINE
8
BLACK
6
CONTINUOUS
10
108.6556250000000006
20
-124.7326949999999925
11
108.5603869999999915
21
-125.1136470000000003
0
LINE
8
BLACK
6
CONTINUOUS
10
108.5603869999999915
20
-125.1136470000000003
11
108.4651489999999967
21
-125.3041229999999899
0
LINE
8
BLACK
6
CONTINUOUS
10
108.4651489999999967
20
-125.3041229999999899
11
108.2746729999999928
21
-125.4945999999999913
0
LINE
8
BLACK
6
CONTINUOUS
10
108.2746729999999928
20
-125.4945999999999913
11
107.9889579999999967
21
-125.5898380000000003
0
LINE
8
BLACK
6
CONTINUOUS
10
107.9889579999999967
20
-125.5898380000000003
11
107.5127679999999941
21
-125.5898380000000003
0
LINE
8
BLACK
6
CONTINUOUS
10
109.5127679999999941
20
-125.5898380000000003
11
109.5127679999999941
21
-124.2565039999999925
0
LINE
8
BLACK
6
CONTINUOUS
10
109.5127679999999941
20
-124.6374569999999977
11
109.6080059999999889
21
-124.4469799999999964
0
LINE
8
BLACK
6
CONTINUOUS
10
109.6080059999999889
20
-124.4469799999999964
11
109.703243999999998
21
-124.3517419999999873
0
LINE
8
BLACK
6
CONTINUOUS
10
109.703243999999998
20
-124.3517419999999873
11
109.8937200000000018
21
-124.2565039999999925
0
LINE
8
BLACK
6
CONTINUOUS
10
109.8937200000000018
20
-124.2565039999999925
11
110.084196999999989
21
-124.2565039999999925
0
LINE
8
BLACK
6
CONTINUOUS
10
110.7508629999999954
20
-125.5898380000000003
11
110.7508629999999954
21
-124.2565039999999925
0
LINE
8
BLACK
6
CONTINUOUS
10
110.7508629999999954
20
-123.5898380000000003
11
110.6556250000000006
21
-123.6850759999999951
0
LINE
8
BLACK
6
CONTINUOUS
10
110.6556250000000006
20
-123.6850759999999951
11
110.7508629999999954
21
-123.78031399999999
0
LINE
8
BLACK
6
CONTINUOUS
10
110.7508629999999954
20
-123.78031399999999
11
110.8461009999999902
21
-123.6850759999999951
0
LINE
8
BLACK
6
CONTINUOUS
10
110.8461009999999902
20
-123.6850759999999951
11
110.7508629999999954
21
-123.5898380000000003
0
LINE
8
BLACK
6
CONTINUOUS
10
110.7508629999999954
20
-123.5898380000000003
11
110.7508629999999954
21
-123.78031399999999
0
LINE
8
BLACK
6
CONTINUOUS
10
111.9889579999999967
20
-125.5898380000000003
11
111.7984819999999928
21
-125.4945999999999913
0
LINE
8
BLACK
6
CONTINUOUS
10
111.7984819999999928
20
-125.4945999999999913
11
111.703243999999998
21
-125.3041229999999899
0
LINE
8
BLACK
6
CONTINUOUS
10
111.703243999999998
20
-125.3041229999999899
11
111.703243999999998
21
-123.5898380000000003
0
LINE
8
BLACK
6
CONTINUOUS
10
113.0365769999999941
20
-125.5898380000000003
11
112.8461009999999902
21
-125.4945999999999913
0
LINE
8
BLACK
6
CONTINUOUS
10
112.8461009999999902
20
-125.4945999999999913
11
112.7508629999999954
21
-125.3041229999999899
0
LINE
8
BLACK
6
CONTINUOUS
10
112.7508629999999954
20
-125.3041229999999899
11
112.7508629999999954
21
-123.5898380000000003
0
LINE
8
BLACK
6
CONTINUOUS
10
115.3222919999999903
20
-125.5898380000000003
11
115.3222919999999903
21
-123.5898380000000003
0
LINE
8
BLACK
6
CONTINUOUS
10
115.3222919999999903
20
-123.5898380000000003
11
115.9889589999999941
21
-125.0184089999999912
0
LINE
8
BLACK
6
CONTINUOUS
10
115.9889589999999941
20
-125.0184089999999912
11
116.6556250000000006
21
-123.5898380000000003
0
LINE
8
BLACK
6
CONTINUOUS
10
116.6556250000000006
20
-123.5898380000000003
11
116.6556250000000006
21
-125.5898380000000003
0
LINE
8
BLACK
6
CONTINUOUS
10
118.4651489999999967
20
-125.5898380000000003
11
118.4651489999999967
21
-124.5422189999999887
0
LINE
8
BLACK
6
CONTINUOUS
10
118.4651489999999967
20
-124.5422189999999887
11
118.3699109999999877
21
-124.3517419999999873
0
LINE
8
BLACK
6
CONTINUOUS
10
118.3699109999999877
20
-124.3517419999999873
11
118.179434999999998
21
-124.2565039999999925
0
LINE
8
BLACK
6
CONTINUOUS
10
118.179434999999998
20
-124.2565039999999925
11
117.7984819999999928
21
-124.2565039999999925
0
LINE
8
BLACK
6
CONTINUOUS
10
117.7984819999999928
20
-124.2565039999999925
11
117.6080059999999889
21
-124.3517419999999873
0
LINE
8
BLACK
6
CONTINUOUS
10
118.4651489999999967
20
-125.4945999999999913
11
118.2746729999999928
21
-125.5898380000000003
0
LINE
8
BLACK
6
CONTINUOUS
10
118.2746729999999928
20
-125.5898380000000003
11
117.7984819999999928
21
-125.5898380000000003
0
LINE
8
BLACK
6
CONTINUOUS
10
117.7984819999999928
20
-125.5898380000000003
11
117.6080059999999889
21
-125.4945999999999913
0
LINE
8
BLACK
6
CONTINUOUS
10
117.6080059999999889
20
-125.4945999999999913
11
117.5127679999999941
21
-125.3041229999999899
0
LINE
8
BLACK
6
CONTINUOUS
10
117.5127679999999941
20
-125.3041229999999899
11
117.5127679999999941
21
-125.1136470000000003
0
LINE
8
BLACK
6
CONTINUOUS
10
117.5127679999999941
20
-125.1136470000000003
11
117.6080059999999889
21
-124.9231709999999964
0
LINE
8
BLACK
6
CONTINUOUS
10
117.6080059999999889
20
-124.9231709999999964
11
117.7984819999999928
21
-124.8279329999999874
0
LINE
8
BLACK
6
CONTINUOUS
10
117.7984819999999928
20
-124.8279329999999874
11
118.2746729999999928
21
-124.8279329999999874
0
LINE
8
BLACK
6
CONTINUOUS
10
118.2746729999999928
20
-124.8279329999999874
11
118.4651489999999967
21
-124.7326949999999925
0
LINE
8
BLACK
6
CONTINUOUS
10
119.4175299999999993
20
-124.2565039999999925
11
119.4175299999999993
21
-126.2565039999999925
0
LINE
8
BLACK
6
CONTINUOUS
10
119.4175299999999993
20
-124.3517419999999873
11
119.6080059999999889
21
-124.2565039999999925
0
LINE
8
BLACK
6
CONTINUOUS
10
119.6080059999999889
20
-124.2565039999999925
11
119.9889589999999941
21
-124.2565039999999925
0
LINE
8
BLACK
6
CONTINUOUS
10
119.9889589999999941
20
-124.2565039999999925
11
120.179434999999998
21
-124.3517419999999873
0
LINE
8
BLACK
6
CONTINUOUS
10
120.179434999999998
20
-124.3517419999999873
11
120.2746729999999928
21
-124.4469799999999964
0
LINE
8
BLACK
6
CONTINUOUS
10
120.2746729999999928
20
-124.4469799999999964
11
120.3699109999999877
21
-124.6374569999999977
0
LINE
8
BLACK
6
CONTINUOUS
10
120.3699109999999877
20
-124.6374569999999977
11
120.3699109999999877
21
-125.2088849999999951
0
LINE
8
BLACK
6
CONTINUOUS
10
120.3699109999999877
20
-125.2088849999999951
11
120.2746729999999928
21
-125.399360999999999
0
LINE
8
BLACK
6
CONTINUOUS
10
120.2746729999999928
20
-125.399360999999999
11
120.179434999999998
21
-125.4945999999999913
0
LINE
8
BLACK
6
CONTINUOUS
10
120.179434999999998
20
-125.4945999999999913
11
119.9889589999999941
21
-125.5898380000000003
0
LINE
8
BLACK
6
CONTINUOUS
10
119.9889589999999941
20
-125.5898380000000003
11
119.6080059999999889
21
-125.5898380000000003
0
LINE
8
BLACK
6
CONTINUOUS
10
119.6080059999999889
20
-125.5898380000000003
11
119.4175299999999993
21
-125.4945999999999913
0
LINE
8
BLACK
6
CONTINUOUS
10
121.2270539999999954
20
-125.399360999999999
11
121.3222919999999903
21
-125.4945999999999913
0
LINE
8
BLACK
6
CONTINUOUS
10
121.3222919999999903
20
-125.4945999999999913
11
121.2270539999999954
21
-125.5898380000000003
0
LINE
8
BLACK
6
CONTINUOUS
10
121.2270539999999954
20
-125.5898380000000003
11
121.1318160000000006
21
-125.4945999999999913
0
LINE
8
BLACK
6
CONTINUOUS
10
121.1318160000000006
20
-125.4945999999999913
11
121.2270539999999954
21
-125.399360999999999
0
LINE
8
BLACK
6
CONTINUOUS
10
121.2270539999999954
20
-125.399360999999999
11
121.2270539999999954
21
-125.5898380000000003
0
LINE
8
BLACK
6
CONTINUOUS
10
121.2270539999999954
20
-124.3517419999999873
11
121.3222919999999903
21
-124.4469799999999964
0
LINE
8
BLACK
6
CONTINUOUS
10
121.3222919999999903
20
-124.4469799999999964
11
121.2270539999999954
21
-124.5422189999999887
0
LINE
8
BLACK
6
CONTINUOUS
10
121.2270539999999954
20
-124.5422189999999887
11
121.1318160000000006
21
-124.4469799999999964
0
LINE
8
BLACK
6
CONTINUOUS
10
121.1318160000000006
20
-124.4469799999999964
11
121.2270539999999954
21
-124.3517419999999873
0
LINE
8
BLACK
6
CONTINUOUS
10
121.2270539999999954
20
-124.3517419999999873
11
121.2270539999999954
21
-124.5422189999999887
0
LINE
8
BLACK
6
CONTINUOUS
10
102.9050000000000011
20
-127.875
11
104.9050000000000011
21
-129.875
0
LINE
8
BLACK
6
CONTINUOUS
10
104.9050000000000011
20
-127.875
11
102.9050000000000011
21
-129.875
0
LINE
8
BLACK
6
CONTINUOUS
10
107.3222919999999903
20
-127.7898379999999889
11
108.5603869999999915
21
-127.7898379999999889
0
LINE
8
BLACK
6
CONTINUOUS
10
108.5603869999999915
20
-127.7898379999999889
11
107.8937200000000018
21
-128.5517419999999902
0
LINE
8
BLACK
6
CONTINUOUS
10
107.8937200000000018
20
-128.5517419999999902
11
108.179434999999998
21
-128.5517419999999902
0
LINE
8
BLACK
6
CONTINUOUS
10
108.179434999999998
20
-128.5517419999999902
11
108.3699110000000019
21
-128.646979999999985
0
LINE
8
BLACK
6
CONTINUOUS
10
108.3699110000000019
20
-128.646979999999985
11
108.4651489999999967
21
-128.7422190000000057
0
LINE
8
BLACK
6
CONTINUOUS
10
108.4651489999999967
20
-128.7422190000000057
11
108.5603869999999915
21
-128.9326949999999954
0
LINE
8
BLACK
6
CONTINUOUS
10
108.5603869999999915
20
-128.9326949999999954
11
108.5603869999999915
21
-129.4088849999999979
0
LINE
8
BLACK
6
CONTINUOUS
10
108.5603869999999915
20
-129.4088849999999979
11
108.4651489999999967
21
-129.5993609999999876
0
LINE
8
BLACK
6
CONTINUOUS
10
108.4651489999999967
20
-129.5993609999999876
11
108.3699110000000019
21
-129.6946000000000083
0
LINE
8
BLACK
6
CONTINUOUS
10
108.3699110000000019
20
-129.6946000000000083
11
108.179434999999998
21
-129.7898380000000031
0
LINE
8
BLACK
6
CONTINUOUS
10
108.179434999999998
20
-129.7898380000000031
11
107.6080059999999889
21
-129.7898380000000031
0
LINE
8
BLACK
6
CONTINUOUS
10
107.6080059999999889
20
-129.7898380000000031
11
107.4175299999999993
21
-129.6946000000000083
0
LINE
8
BLACK
6
CONTINUOUS
10
107.4175299999999993
20
-129.6946000000000083
11
107.3222919999999903
21
-129.5993609999999876
0
LINE
8
BLACK
6
CONTINUOUS
10
109.4175299999999993
20
-129.5993609999999876
11
109.5127679999999941
21
-129.6946000000000083
0
LINE
8
BLACK
6
CONTINUOUS
10
109.5127679999999941
20
-129.6946000000000083
11
109.4175299999999993
21
-129.7898380000000031
0
LINE
8
BLACK
6
CONTINUOUS
10
109.4175299999999993
20
-129.7898380000000031
11
109.3222919999999903
21
-129.6946000000000083
0
LINE
8
BLACK
6
CONTINUOUS
10
109.3222919999999903
20
-129.6946000000000083
11
109.4175299999999993
21
-129.5993609999999876
0
LINE
8
BLACK
6
CONTINUOUS
10
109.4175299999999993
20
-129.5993609999999876
11
109.4175299999999993
21
-129.7898380000000031
0
LINE
8
BLACK
6
CONTINUOUS
10
110.7508629999999954
20
-127.7898379999999889
11
110.9413399999999967
21
-127.7898379999999889
0
LINE
8
BLACK
6
CONTINUOUS
10
110.9413399999999967
20
-127.7898379999999889
11
111.1318160000000006
21
-127.885075999999998
0
LINE
8
BLACK
6
CONTINUOUS
10
111.1318160000000006
20
-127.885075999999998
11
111.2270539999999954
21
-127.9803139999999928
0
LINE
8
BLACK
6
CONTINUOUS
10
111.2270539999999954
20
-127.9803139999999928
11
111.3222919999999903
21
-128.1707899999999825
0
LINE
8
BLACK
6
CONTINUOUS
10
111.3222919999999903
20
-128.1707899999999825
11
111.4175299999999993
21
-128.5517419999999902
0
LINE
8
BLACK
6
CONTINUOUS
10
111.4175299999999993
20
-128.5517419999999902
11
111.4175299999999993
21
-129.0279329999999902
0
LINE
8
BLACK
6
CONTINUOUS
10
111.4175299999999993
20
-129.0279329999999902
11
111.3222919999999903
21
-129.4088849999999979
0
LINE
8
BLACK
6
CONTINUOUS
10
111.3222919999999903
20
-129.4088849999999979
11
111.2270539999999954
21
-129.5993609999999876
0
LINE
8
BLACK
6
CONTINUOUS
10
111.2270539999999954
20
-129.5993609999999876
11
111.1318160000000006
21
-129.6946000000000083
0
LINE
8
BLACK
6
CONTINUOUS
10
111.1318160000000006
20
-129.6946000000000083
11
110.9413399999999967
21
-129.7898380000000031
0
LINE
8
BLACK
6
CONTINUOUS
10
110.9413399999999967
20
-129.7898380000000031
11
110.7508629999999954
21
-129.7898380000000031
0
LINE
8
BLACK
6
CONTINUOUS
10
110.7508629999999954
20
-129.7898380000000031
11
110.5603869999999915
21
-129.6946000000000083
0
LINE
8
BLACK
6
CONTINUOUS
10
110.5603869999999915
20
-129.6946000000000083
11
110.4651489999999967
21
-129.5993609999999876
0
LINE
8
BLACK
6
CONTINUOUS
10
110.4651489999999967
20
-129.5993609999999876
11
110.3699110000000019
21
-129.4088849999999979
0
LINE
8
BLACK
6
CONTINUOUS
10
110.3699110000000019
20
-129.4088849999999979
11
110.2746729999999928
21
-129.0279329999999902
0
LINE
8
BLACK
6
CONTINUOUS
10
110.2746729999999928
20
-129.0279329999999902
11
110.2746729999999928
21
-128.5517419999999902
0
LINE
8
BLACK
6
CONTINUOUS
10
110.2746729999999928
20
-128.5517419999999902
11
110.3699110000000019
21
-128.1707899999999825
0
LINE
8
BLACK
6
CONTINUOUS
10
110.3699110000000019
20
-128.1707899999999825
11
110.4651489999999967
21
-127.9803139999999928
0
LINE
8
BLACK
6
CONTINUOUS
10
110.4651489999999967
20
-127.9803139999999928
11
110.5603869999999915
21
-127.885075999999998
0
LINE
8
BLACK
6
CONTINUOUS
10
110.5603869999999915
20
-127.885075999999998
11
110.7508629999999954
21
-127.7898379999999889
0
LINE
8
BLACK
6
CONTINUOUS
10
112.6556250000000006
20
-127.7898379999999889
11
112.8461020000000019
21
-127.7898379999999889
0
LINE
8
BLACK
6
CONTINUOUS
10
112.8461020000000019
20
-127.7898379999999889
11
113.0365779999999916
21
-127.885075999999998
0
LINE
8
BLACK
6
CONTINUOUS
10
113.0365779999999916
20
-127.885075999999998
11
113.1318160000000006
21
-127.9803139999999928
0
LINE
8
BLACK
6
CONTINUOUS
10
113.1318160000000006
20
-127.9803139999999928
11
113.2270539999999954
21
-128.1707899999999825
0
LINE
8
BLACK
6
CONTINUOUS
10
113.2270539999999954
20
-128.1707899999999825
11
113.3222919999999903
21
-128.5517419999999902
0
LINE
8
BLACK
6
CONTINUOUS
10
113.3222919999999903
20
-128.5517419999999902
11
113.3222919999999903
21
-129.0279329999999902
0
LINE
8
BLACK
6
CONTINUOUS
10
113.3222919999999903
20
-129.0279329999999902
11
113.2270539999999954
21
-129.4088849999999979
0
LINE
8
BLACK
6
CONTINUOUS
10
113.2270539999999954
20
-129.4088849999999979
11
113.1318160000000006
21
-129.5993609999999876
0
LINE
8
BLACK
6
CONTINUOUS
10
113.1318160000000006
20
-129.5993609999999876
11
113.0365779999999916
21
-129.6946000000000083
0
LINE
8
BLACK
6
CONTINUOUS
10
113.0365779999999916
20
-129.6946000000000083
11
112.8461020000000019
21
-129.7898380000000031
0
LINE
8
BLACK
6
CONTINUOUS
10
112.8461020000000019
20
-129.7898380000000031
11
112.6556250000000006
21
-129.7898380000000031
0
LINE
8
BLACK
6
CONTINUOUS
10
112.6556250000000006
20
-129.7898380000000031
11
112.4651489999999967
21
-129.6946000000000083
0
LINE
8
BLACK
6
CONTINUOUS
10
112.4651489999999967
20
-129.6946000000000083
11
112.3699110000000019
21
-129.5993609999999876
0
LINE
8
BLACK
6
CONTINUOUS
10
112.3699110000000019
20
-129.5993609999999876
11
112.2746729999999928
21
-129.4088849999999979
0
LINE
8
BLACK
6
CONTINUOUS
10
112.2746729999999928
20
-129.4088849999999979
11
112.179434999999998
21
-129.0279329999999902
0
LINE
8
BLACK
6
CONTINUOUS
10
112.179434999999998
20
-129.0279329999999902
11
112.179434999999998
21
-128.5517419999999902
0
LINE
8
BLACK
6
CONTINUOUS
10
112.179434999999998
20
-128.5517419999999902
11
112.2746729999999928
21
-128.1707899999999825
0
LINE
8
BLACK
6
CONTINUOUS
10
112.2746729999999928
20
-128.1707899999999825
11
112.3699110000000019
21
-127.9803139999999928
0
LINE
8
BLACK
6
CONTINUOUS
10
112.3699110000000019
20
-127.9803139999999928
11
112.4651489999999967
21
-127.885075999999998
0
LINE
8
BLACK
6
CONTINUOUS
10
112.4651489999999967
20
-127.885075999999998
11
112.6556250000000006
21
-127.7898379999999889
0
LINE
8
BLACK
6
CONTINUOUS
10
114.5603869999999915
20
-127.7898379999999889
11
114.7508639999999929
21
-127.7898379999999889
0
LINE
8
BLACK
6
CONTINUOUS
10
114.7508639999999929
20
-127.7898379999999889
11
114.9413399999999967
21
-127.885075999999998
0
LINE
8
BLACK
6
CONTINUOUS
10
114.9413399999999967
20
-127.885075999999998
11
115.0365779999999916
21
-127.9803139999999928
0
LINE
8
BLACK
6
CONTINUOUS
10
115.0365779999999916
20
-127.9803139999999928
11
115.1318160000000006
21
-128.1707899999999825
0
LINE
8
BLACK
6
CONTINUOUS
10
115.1318160000000006
20
-128.1707899999999825
11
115.2270539999999954
21
-128.5517419999999902
0
LINE
8
BLACK
6
CONTINUOUS
10
115.2270539999999954
20
-128.5517419999999902
11
115.2270539999999954
21
-129.0279329999999902
0
LINE
8
BLACK
6
CONTINUOUS
10
115.2270539999999954
20
-129.0279329999999902
11
115.1318160000000006
21
-129.4088849999999979
0
LINE
8
BLACK
6
CONTINUOUS
10
115.1318160000000006
20
-129.4088849999999979
11
115.0365779999999916
21
-129.5993609999999876
0
LINE
8
BLACK
6
CONTINUOUS
10
115.0365779999999916
20
-129.5993609999999876
11
114.9413399999999967
21
-129.6946000000000083
0
LINE
8
BLACK
6
CONTINUOUS
10
114.9413399999999967
20
-129.6946000000000083
11
114.7508639999999929
21
-129.7898380000000031
0
LINE
8
BLACK
6
CONTINUOUS
10
114.7508639999999929
20
-129.7898380000000031
11
114.5603869999999915
21
-129.7898380000000031
0
LINE
8
BLACK
6
CONTINUOUS
10
114.5603869999999915
20
-129.7898380000000031
11
114.3699110000000019
21
-129.6946000000000083
0
LINE
8
BLACK
6
CONTINUOUS
10
114.3699110000000019
20
-129.6946000000000083
11
114.2746729999999928
21
-129.5993609999999876
0
LINE
8
BLACK
6
CONTINUOUS
10
114.2746729999999928
20
-129.5993609999999876
11
114.179434999999998
21
-129.4088849999999979
0
LINE
8
BLACK
6
CONTINUOUS
10
114.179434999999998
20
-129.4088849999999979
11
114.084196999999989
21
-129.0279329999999902
0
LINE
8
BLACK
6
CONTINUOUS
10
114.084196999999989
20
-129.0279329999999902
11
114.084196999999989
21
-128.5517419999999902
0
LINE
8
BLACK
6
CONTINUOUS
10
114.084196999999989
20
-128.5517419999999902
11
114.179434999999998
21
-128.1707899999999825
0
LINE
8
BLACK
6
CONTINUOUS
10
114.179434999999998
20
-128.1707899999999825
11
114.2746729999999928
21
-127.9803139999999928
0
LINE
8
BLACK
6
CONTINUOUS
10
114.2746729999999928
20
-127.9803139999999928
11
114.3699110000000019
21
-127.885075999999998
0
LINE
8
BLACK
6
CONTINUOUS
10
114.3699110000000019
20
-127.885075999999998
11
114.5603869999999915
21
-127.7898379999999889
0
LINE
8
BLACK
6
CONTINUOUS
10
116.084196999999989
20
-129.7898380000000031
11
116.084196999999989
21
-128.4565039999999954
0
LINE
8
BLACK
6
CONTINUOUS
10
116.084196999999989
20
-128.646979999999985
11
116.179434999999998
21
-128.5517419999999902
0
LINE
8
BLACK
6
CONTINUOUS
10
116.179434999999998
20
-128.5517419999999902
11
116.3699109999999877
21
-128.4565039999999954
0
LINE
8
BLACK
6
CONTINUOUS
10
116.3699109999999877
20
-128.4565039999999954
11
116.655625999999998
21
-128.4565039999999954
0
LINE
8
BLACK
6
CONTINUOUS
10
116.655625999999998
20
-128.4565039999999954
11
116.8461019999999877
21
-128.5517419999999902
0
LINE
8
BLACK
6
CONTINUOUS
10
116.8461019999999877
20
-128.5517419999999902
11
116.9413399999999967
21
-128.7422190000000057
0
LINE
8
BLACK
6
CONTINUOUS
10
116.9413399999999967
20
-128.7422190000000057
11
116.9413399999999967
21
-129.7898380000000031
0
LINE
8
BLACK
6
CONTINUOUS
10
116.9413399999999967
20
-128.7422190000000057
11
117.0365779999999916
21
-128.5517419999999902
0
LINE
8
BLACK
6
CONTINUOUS
10
117.0365779999999916
20
-128.5517419999999902
11
117.2270539999999954
21
-128.4565039999999954
0
LINE
8
BLACK
6
CONTINUOUS
10
117.2270539999999954
20
-128.4565039999999954
11
117.5127679999999941
21
-128.4565039999999954
0
LINE
8
BLACK
6
CONTINUOUS
10
117.5127679999999941
20
-128.4565039999999954
11
117.7032449999999955
21
-128.5517419999999902
0
LINE
8
BLACK
6
CONTINUOUS
10
117.7032449999999955
20
-128.5517419999999902
11
117.7984829999999903
21
-128.7422190000000057
0
LINE
8
BLACK
6
CONTINUOUS
10
117.7984829999999903
20
-128.7422190000000057
11
117.7984829999999903
21
-129.7898380000000031
0
LINE
8
BLACK
6
CONTINUOUS
10
118.7508639999999929
20
-129.7898380000000031
11
118.7508639999999929
21
-128.4565039999999954
0
LINE
8
BLACK
6
CONTINUOUS
10
118.7508639999999929
20
-128.646979999999985
11
118.8461019999999877
21
-128.5517419999999902
0
LINE
8
BLACK
6
CONTINUOUS
10
118.8461019999999877
20
-128.5517419999999902
11
119.0365779999999916
21
-128.4565039999999954
0
LINE
8
BLACK
6
CONTINUOUS
10
119.0365779999999916
20
-128.4565039999999954
11
119.3222929999999877
21
-128.4565039999999954
0
LINE
8
BLACK
6
CONTINUOUS
10
119.3222929999999877
20
-128.4565039999999954
11
119.5127689999999916
21
-128.5517419999999902
0
LINE
8
BLACK
6
CONTINUOUS
10
119.5127689999999916
20
-128.5517419999999902
11
119.6080070000000006
21
-128.7422190000000057
0
LINE
8
BLACK
6
CONTINUOUS
10
119.6080070000000006
20
-128.7422190000000057
11
119.6080070000000006
21
-129.7898380000000031
0
LINE
8
BLACK
6
CONTINUOUS
10
119.6080070000000006
20
-128.7422190000000057
11
119.7032449999999955
21
-128.5517419999999902
0
LINE
8
BLACK
6
CONTINUOUS
10
119.7032449999999955
20
-128.5517419999999902
11
119.8937209999999993
21
-128.4565039999999954
0
LINE
8
BLACK
6
CONTINUOUS
10
119.8937209999999993
20
-128.4565039999999954
11
120.179434999999998
21
-128.4565039999999954
0
LINE
8
BLACK
6
CONTINUOUS
10
120.179434999999998
20
-128.4565039999999954
11
120.3699119999999994
21
-128.5517419999999902
0
LINE
8
BLACK
6
CONTINUOUS
10
120.3699119999999994
20
-128.5517419999999902
11
120.4651499999999942
21
-128.7422190000000057
0
LINE
8
BLACK
6
CONTINUOUS
10
120.4651499999999942
20
-128.7422190000000057
11
120.4651499999999942
21
-129.7898380000000031
0
LINE
8
BLACK
6
CONTINUOUS
10
124.3699119999999994
20
-127.6945999999999941
11
122.6556269999999955
21
-130.2660280000000057
0
LINE
8
BLACK
6
CONTINUOUS
10
126.9413409999999942
20
-127.7898379999999889
11
127.1318179999999955
21
-127.7898379999999889
0
LINE
8
BLACK
6
CONTINUOUS
10
127.1318179999999955
20
-127.7898379999999889
11
127.3222939999999994
21
-127.885075999999998
0
LINE
8
BLACK
6
CONTINUOUS
10
127.3222939999999994
20
-127.885075999999998
11
127.4175319999999942
21
-127.9803139999999928
0
LINE
8
BLACK
6
CONTINUOUS
10
127.4175319999999942
20
-127.9803139999999928
11
127.5127699999999891
21
-128.1707899999999825
0
LINE
8
BLACK
6
CONTINUOUS
10
127.5127699999999891
20
-128.1707899999999825
11
127.6080079999999981
21
-128.5517419999999902
0
LINE
8
BLACK
6
CONTINUOUS
10
127.6080079999999981
20
-128.5517419999999902
11
127.6080079999999981
21
-129.0279329999999902
0
LINE
8
BLACK
6
CONTINUOUS
10
127.6080079999999981
20
-129.0279329999999902
11
127.5127699999999891
21
-129.4088849999999979
0
LINE
8
BLACK
6
CONTINUOUS
10
127.5127699999999891
20
-129.4088849999999979
11
127.4175319999999942
21
-129.5993609999999876
0
LINE
8
BLACK
6
CONTINUOUS
10
127.4175319999999942
20
-129.5993609999999876
11
127.3222939999999994
21
-129.6946000000000083
0
LINE
8
BLACK
6
CONTINUOUS
10
127.3222939999999994
20
-129.6946000000000083
11
127.1318179999999955
21
-129.7898380000000031
0
LINE
8
BLACK
6
CONTINUOUS
10
127.1318179999999955
20
-129.7898380000000031
11
126.9413409999999942
21
-129.7898380000000031
0
LINE
8
BLACK
6
CONTINUOUS
10
126.9413409999999942
20
-129.7898380000000031
11
126.7508649999999903
21
-129.6946000000000083
0
LINE
8
BLACK
6
CONTINUOUS
10
126.7508649999999903
20
-129.6946000000000083
11
126.6556269999999955
21
-129.5993609999999876
0
LINE
8
BLACK
6
CONTINUOUS
10
126.6556269999999955
20
-129.5993609999999876
11
126.5603890000000007
21
-129.4088849999999979
0
LINE
8
BLACK
6
CONTINUOUS
10
126.5603890000000007
20
-129.4088849999999979
11
126.4651509999999917
21
-129.0279329999999902
0
LINE
8
BLACK
6
CONTINUOUS
10
126.4651509999999917
20
-129.0279329999999902
11
126.4651509999999917
21
-128.5517419999999902
0
LINE
8
BLACK
6
CONTINUOUS
10
126.4651509999999917
20
-128.5517419999999902
11
126.5603890000000007
21
-128.1707899999999825
0
LINE
8
BLACK
6
CONTINUOUS
10
126.5603890000000007
20
-128.1707899999999825
11
126.6556269999999955
21
-127.9803139999999928
0
LINE
8
BLACK
6
CONTINUOUS
10
126.6556269999999955
20
-127.9803139999999928
11
126.7508649999999903
21
-127.885075999999998
0
LINE
8
BLACK
6
CONTINUOUS
10
126.7508649999999903
20
-127.885075999999998
11
126.9413409999999942
21
-127.7898379999999889
0
LINE
8
BLACK
6
CONTINUOUS
10
128.4651509999999917
20
-129.5993609999999876
11
128.5603889999999865
21
-129.6946000000000083
0
LINE
8
BLACK
6
CONTINUOUS
10
128.5603889999999865
20
-129.6946000000000083
11
128.4651509999999917
21
-129.7898380000000031
0
LINE
8
BLACK
6
CONTINUOUS
10
128.4651509999999917
20
-129.7898380000000031
11
128.3699129999999968
21
-129.6946000000000083
0
LINE
8
BLACK
6
CONTINUOUS
10
128.3699129999999968
20
-129.6946000000000083
11
128.4651509999999917
21
-129.5993609999999876
0
LINE
8
BLACK
6
CONTINUOUS
10
128.4651509999999917
20
-129.5993609999999876
11
128.4651509999999917
21
-129.7898380000000031
0
LINE
8
BLACK
6
CONTINUOUS
10
130.4651509999999917
20
-129.7898380000000031
11
129.3222939999999994
21
-129.7898380000000031
0
LINE
8
BLACK
6
CONTINUOUS
10
129.8937219999999968
20
-129.7898380000000031
11
129.8937219999999968
21
-127.7898379999999889
0
LINE
8
BLACK
6
CONTINUOUS
10
129.8937219999999968
20
-127.7898379999999889
11
129.7032460000000071
21
-128.0755519999999876
0
LINE
8
BLACK
6
CONTINUOUS
10
129.7032460000000071
20
-128.0755519999999876
11
129.5127699999999891
21
-128.2660280000000057
0
LINE
8
BLACK
6
CONTINUOUS
10
129.5127699999999891
20
-128.2660280000000057
11
129.3222939999999994
21
-128.3612660000000005
0
LINE
8
BLACK
6
CONTINUOUS
10
132.3699129999999968
20
-129.7898380000000031
11
131.2270560000000046
21
-129.7898380000000031
0
LINE
8
BLACK
6
CONTINUOUS
10
131.798484000000002
20
-129.7898380000000031
11
131.798484000000002
21
-127.7898379999999889
0
LINE
8
BLACK
6
CONTINUOUS
10
131.798484000000002
20
-127.7898379999999889
11
131.6080079999999839
21
-128.0755519999999876
0
LINE
8
BLACK
6
CONTINUOUS
10
131.6080079999999839
20
-128.0755519999999876
11
131.4175319999999942
21
-128.2660280000000057
0
LINE
8
BLACK
6
CONTINUOUS
10
131.4175319999999942
20
-128.2660280000000057
11
131.2270560000000046
21
-128.3612660000000005
0
LINE
8
BLACK
6
CONTINUOUS
10
133.5127699999999891
20
-128.646979999999985
11
133.3222939999999994
21
-128.5517419999999902
0
LINE
8
BLACK
6
CONTINUOUS
10
133.3222939999999994
20
-128.5517419999999902
11
133.2270560000000046
21
-128.4565039999999954
0
LINE
8
BLACK
6
CONTINUOUS
10
133.2270560000000046
20
-128.4565039999999954
11
133.1318179999999813
21
-128.2660280000000057
0
LINE
8
BLACK
6
CONTINUOUS
10
133.1318179999999813
20
-128.2660280000000057
11
133.1318179999999813
21
-128.1707899999999825
0
LINE
8
BLACK
6
CONTINUOUS
10
133.1318179999999813
20
-128.1707899999999825
11
133.2270560000000046
21
-127.9803139999999928
0
LINE
8
BLACK
6
CONTINUOUS
10
133.2270560000000046
20
-127.9803139999999928
11
133.3222939999999994
21
-127.885075999999998
0
LINE
8
BLACK
6
CONTINUOUS
10
133.3222939999999994
20
-127.885075999999998
11
133.5127699999999891
21
-127.7898379999999889
0
LINE
8
BLACK
6
CONTINUOUS
10
133.5127699999999891
20
-127.7898379999999889
11
133.8937229999999943
21
-127.7898379999999889
0
LINE
8
BLACK
6
CONTINUOUS
10
133.8937229999999943
20
-127.7898379999999889
11
134.0841989999999839
21
-127.885075999999998
0
LINE
8
BLACK
6
CONTINUOUS
10
134.0841989999999839
20
-127.885075999999998
11
134.1794370000000072
21
-127.9803139999999928
0
LINE
8
BLACK
6
CONTINUOUS
10
134.1794370000000072
20
-127.9803139999999928
11
134.274675000000002
21
-128.1707899999999825
0
LINE
8
BLACK
6
CONTINUOUS
10
134.274675000000002
20
-128.1707899999999825
11
134.274675000000002
21
-128.2660280000000057
0
LINE
8
BLACK
6
CONTINUOUS
10
134.274675000000002
20
-128.2660280000000057
11
134.1794370000000072
21
-128.4565039999999954
0
LINE
8
BLACK
6
CONTINUOUS
10
134.1794370000000072
20
-128.4565039999999954
11
134.0841989999999839
21
-128.5517419999999902
0
LINE
8
BLACK
6
CONTINUOUS
10
134.0841989999999839
20
-128.5517419999999902
11
133.8937229999999943
21
-128.646979999999985
0
LINE
8
BLACK
6
CONTINUOUS
10
133.8937229999999943
20
-128.646979999999985
11
133.5127699999999891
21
-128.646979999999985
0
LINE
8
BLACK
6
CONTINUOUS
10
133.5127699999999891
20
-128.646979999999985
11
133.3222939999999994
21
-128.7422190000000057
0
LINE
8
BLACK
6
CONTINUOUS
10
133.3222939999999994
20
-128.7422190000000057
11
133.2270560000000046
21
-128.8374570000000006
0
LINE
8
BLACK
6
CONTINUOUS
10
133.2270560000000046
20
-128.8374570000000006
11
133.1318179999999813
21
-129.0279329999999902
0
LINE
8
BLACK
6
CONTINUOUS
10
133.1318179999999813
20
-129.0279329999999902
11
133.1318179999999813
21
-129.4088849999999979
0
LINE
8
BLACK
6
CONTINUOUS
10
133.1318179999999813
20
-129.4088849999999979
11
133.2270560000000046
21
-129.5993609999999876
0
LINE
8
BLACK
6
CONTINUOUS
10
133.2270560000000046
20
-129.5993609999999876
11
133.3222939999999994
21
-129.6946000000000083
0
LINE
8
BLACK
6
CONTINUOUS
10
133.3222939999999994
20
-129.6946000000000083
11
133.5127699999999891
21
-129.7898380000000031
0
LINE
8
BLACK
6
CONTINUOUS
10
133.5127699999999891
20
-129.7898380000000031
11
133.8937229999999943
21
-129.7898380000000031
0
LINE
8
BLACK
6
CONTINUOUS
10
133.8937229999999943
20
-129.7898380000000031
11
134.0841989999999839
21
-129.6946000000000083
0
LINE
8
BLACK
6
CONTINUOUS
10
134.0841989999999839
20
-129.6946000000000083
11
134.1794370000000072
21
-129.5993609999999876
0
LINE
8
BLACK
6
CONTINUOUS
10
134.1794370000000072
20
-129.5993609999999876
11
134.274675000000002
21
-129.4088849999999979
0
LINE
8
BLACK
6
CONTINUOUS
10
134.274675000000002
20
-129.4088849999999979
11
134.274675000000002
21
-129.0279329999999902
0
LINE
8
BLACK
6
CONTINUOUS
10
134.274675000000002
20
-129.0279329999999902
11
134.1794370000000072
21
-128.8374570000000006
0
LINE
8
BLACK
6
CONTINUOUS
10
134.1794370000000072
20
-128.8374570000000006
11
134.0841989999999839
21
-128.7422190000000057
0
LINE
8
BLACK
6
CONTINUOUS
10
134.0841989999999839
20
-128.7422190000000057
11
133.8937229999999943
21
-128.646979999999985
0
LINE
8
BLACK
6
CONTINUOUS
10
136.1794370000000072
20
-129.7898380000000031
11
135.0365799999999865
21
-129.7898380000000031
0
LINE
8
BLACK
6
CONTINUOUS
10
135.6080079999999839
20
-129.7898380000000031
11
135.6080079999999839
21
-127.7898379999999889
0
LINE
8
BLACK
6
CONTINUOUS
10
135.6080079999999839
20
-127.7898379999999889
11
135.4175319999999942
21
-128.0755519999999876
0
LINE
8
BLACK
6
CONTINUOUS
10
135.4175319999999942
20
-128.0755519999999876
11
135.2270560000000046
21
-128.2660280000000057
0
LINE
8
BLACK
6
CONTINUOUS
10
135.2270560000000046
20
-128.2660280000000057
11
135.0365799999999865
21
-128.3612660000000005
0
LINE
8
BLACK
6
CONTINUOUS
10
136.9413419999999917
20
-127.7898379999999889
11
136.9413419999999917
21
-128.1707899999999825
0
LINE
8
BLACK
6
CONTINUOUS
10
137.7032470000000046
20
-127.7898379999999889
11
137.7032470000000046
21
-128.1707899999999825
0
LINE
8
BLACK
6
CONTINUOUS
10
140.6556290000000047
20
-130.5517419999999902
11
140.560389999999984
21
-130.4565039999999954
0
LINE
8
BLACK
6
CONTINUOUS
10
140.560389999999984
20
-130.4565039999999954
11
140.3699139999999943
21
-130.1707899999999825
0
LINE
8
BLACK
6
CONTINUOUS
10
140.3699139999999943
20
-130.1707899999999825
11
140.2746759999999995
21
-129.9803139999999928
0
LINE
8
BLACK
6
CONTINUOUS
10
140.2746759999999995
20
-129.9803139999999928
11
140.1794380000000046
21
-129.6946000000000083
0
LINE
8
BLACK
6
CONTINUOUS
10
140.1794380000000046
20
-129.6946000000000083
11
140.0841999999999814
21
-129.2184090000000083
0
LINE
8
BLACK
6
CONTINUOUS
10
140.0841999999999814
20
-129.2184090000000083
11
140.0841999999999814
21
-128.8374570000000006
0
LINE
8
BLACK
6
CONTINUOUS
10
140.0841999999999814
20
-128.8374570000000006
11
140.1794380000000046
21
-128.3612660000000005
0
LINE
8
BLACK
6
CONTINUOUS
10
140.1794380000000046
20
-128.3612660000000005
11
140.2746759999999995
21
-128.0755519999999876
0
LINE
8
BLACK
6
CONTINUOUS
10
140.2746759999999995
20
-128.0755519999999876
11
140.3699139999999943
21
-127.885075999999998
0
LINE
8
BLACK
6
CONTINUOUS
10
140.3699139999999943
20
-127.885075999999998
11
140.560389999999984
21
-127.5993609999999876
0
LINE
8
BLACK
6
CONTINUOUS
10
140.560389999999984
20
-127.5993609999999876
11
140.6556290000000047
21
-127.5041229999999928
0
LINE
8
BLACK
6
CONTINUOUS
10
142.3699139999999943
20
-127.7898379999999889
11
141.4175329999999917
21
-127.7898379999999889
0
LINE
8
BLACK
6
CONTINUOUS
10
141.4175329999999917
20
-127.7898379999999889
11
141.3222949999999969
21
-128.7422190000000057
0
LINE
8
BLACK
6
CONTINUOUS
10
141.3222949999999969
20
-128.7422190000000057
11
141.4175329999999917
21
-128.646979999999985
0
LINE
8
BLACK
6
CONTINUOUS
10
141.4175329999999917
20
-128.646979999999985
11
141.6080089999999814
21
-128.5517419999999902
0
LINE
8
BLACK
6
CONTINUOUS
10
141.6080089999999814
20
-128.5517419999999902
11
142.0841999999999814
21
-128.5517419999999902
0
LINE
8
BLACK
6
CONTINUOUS
10
142.0841999999999814
20
-128.5517419999999902
11
142.2746759999999995
21
-128.646979999999985
0
LINE
8
BLACK
6
CONTINUOUS
10
142.2746759999999995
20
-128.646979999999985
11
142.3699139999999943
21
-128.7422190000000057
0
LINE
8
BLACK
6
CONTINUOUS
10
142.3699139999999943
20
-128.7422190000000057
11
142.4651519999999891
21
-128.9326949999999954
0
LINE
8
BLACK
6
CONTINUOUS
10
142.4651519999999891
20
-128.9326949999999954
11
142.4651519999999891
21
-129.4088849999999979
0
LINE
8
BLACK
6
CONTINUOUS
10
142.4651519999999891
20
-129.4088849999999979
11
142.3699139999999943
21
-129.5993609999999876
0
LINE
8
BLACK
6
CONTINUOUS
10
142.3699139999999943
20
-129.5993609999999876
11
142.2746759999999995
21
-129.6946000000000083
0
LINE
8
BLACK
6
CONTINUOUS
10
142.2746759999999995
20
-129.6946000000000083
11
142.0841999999999814
21
-129.7898380000000031
0
LINE
8
BLACK
6
CONTINUOUS
10
142.0841999999999814
20
-129.7898380000000031
11
141.6080089999999814
21
-129.7898380000000031
0
LINE
8
BLACK
6
CONTINUOUS
10
141.6080089999999814
20
-129.7898380000000031
11
141.4175329999999917
21
-129.6946000000000083
0
LINE
8
BLACK
6
CONTINUOUS
10
141.4175329999999917
20
-129.6946000000000083
11
141.3222949999999969
21
-129.5993609999999876
0
LINE
8
BLACK
6
CONTINUOUS
10
144.8461049999999943
20
-129.7898380000000031
11
144.8461049999999943
21
-127.7898379999999889
0
LINE
8
BLACK
6
CONTINUOUS
10
145.7032480000000021
20
-129.7898380000000031
11
145.7032480000000021
21
-128.7422190000000057
0
LINE
8
BLACK
6
CONTINUOUS
10
145.7032480000000021
20
-128.7422190000000057
11
145.6080100000000073
21
-128.5517419999999902
0
LINE
8
BLACK
6
CONTINUOUS
10
145.6080100000000073
20
-128.5517419999999902
11
145.4175339999999892
21
-128.4565039999999954
0
LINE
8
BLACK
6
CONTINUOUS
10
145.4175339999999892
20
-128.4565039999999954
11
145.1318190000000072
21
-128.4565039999999954
0
LINE
8
BLACK
6
CONTINUOUS
10
145.1318190000000072
20
-128.4565039999999954
11
144.9413429999999892
21
-128.5517419999999902
0
LINE
8
BLACK
6
CONTINUOUS
10
144.9413429999999892
20
-128.5517419999999902
11
144.8461049999999943
21
-128.646979999999985
0
LINE
8
BLACK
6
CONTINUOUS
10
146.9413429999999892
20
-129.7898380000000031
11
146.7508669999999995
21
-129.6946000000000083
0
LINE
8
BLACK
6
CONTINUOUS
10
146.7508669999999995
20
-129.6946000000000083
11
146.6556290000000047
21
-129.5993609999999876
0
LINE
8
BLACK
6
CONTINUOUS
10
146.6556290000000047
20
-129.5993609999999876
11
146.5603909999999814
21
-129.4088849999999979
0
LINE
8
BLACK
6
CONTINUOUS
10
146.5603909999999814
20
-129.4088849999999979
11
146.5603909999999814
21
-128.8374570000000006
0
LINE
8
BLACK
6
CONTINUOUS
10
146.5603909999999814
20
-128.8374570000000006
11
146.6556290000000047
21
-128.646979999999985
0
LINE
8
BLACK
6
CONTINUOUS
10
146.6556290000000047
20
-128.646979999999985
11
146.7508669999999995
21
-128.5517419999999902
0
LINE
8
BLACK
6
CONTINUOUS
10
146.7508669999999995
20
-128.5517419999999902
11
146.9413429999999892
21
-128.4565039999999954
0
LINE
8
BLACK
6
CONTINUOUS
10
146.9413429999999892
20
-128.4565039999999954
11
147.2270579999999995
21
-128.4565039999999954
0
LINE
8
BLACK
6
CONTINUOUS
10
147.2270579999999995
20
-128.4565039999999954
11
147.4175339999999892
21
-128.5517419999999902
0
LINE
8
BLACK
6
CONTINUOUS
10
147.4175339999999892
20
-128.5517419999999902
11
147.512771999999984
21
-128.646979999999985
0
LINE
8
BLACK
6
CONTINUOUS
10
147.512771999999984
20
-128.646979999999985
11
147.6080100000000073
21
-128.8374570000000006
0
LINE
8
BLACK
6
CONTINUOUS
10
147.6080100000000073
20
-128.8374570000000006
11
147.6080100000000073
21
-129.4088849999999979
0
LINE
8
BLACK
6
CONTINUOUS
10
147.6080100000000073
20
-129.4088849999999979
11
147.512771999999984
21
-129.5993609999999876
0
LINE
8
BLACK
6
CONTINUOUS
10
147.512771999999984
20
-129.5993609999999876
11
147.4175339999999892
21
-129.6946000000000083
0
LINE
8
BLACK
6
CONTINUOUS
10
147.4175339999999892
20
-129.6946000000000083
11
147.2270579999999995
21
-129.7898380000000031
0
LINE
8
BLACK
6
CONTINUOUS
10
147.2270579999999995
20
-129.7898380000000031
11
146.9413429999999892
21
-129.7898380000000031
0
LINE
8
BLACK
6
CONTINUOUS
10
148.7508669999999995
20
-129.7898380000000031
11
148.5603909999999814
21
-129.6946000000000083
0
LINE
8
BLACK
6
CONTINUOUS
10
148.5603909999999814
20
-129.6946000000000083
11
148.4651529999999866
21
-129.5041229999999928
0
LINE
8
BLACK
6
CONTINUOUS
10
148.4651529999999866
20
-129.5041229999999928
11
148.4651529999999866
21
-127.7898379999999889
0
LINE
8
BLACK
6
CONTINUOUS
10
150.274676999999997
20
-129.6946000000000083
11
150.0842010000000073
21
-129.7898380000000031
0
LINE
8
BLACK
6
CONTINUOUS
10
150.0842010000000073
20
-129.7898380000000031
11
149.7032480000000021
21
-129.7898380000000031
0
LINE
8
BLACK
6
CONTINUOUS
10
149.7032480000000021
20
-129.7898380000000031
11
149.512771999999984
21
-129.6946000000000083
0
LINE
8
BLACK
6
CONTINUOUS
10
149.512771999999984
20
-129.6946000000000083
11
149.4175339999999892
21
-129.5041229999999928
0
LINE
8
BLACK
6
CONTINUOUS
10
149.4175339999999892
20
-129.5041229999999928
11
149.4175339999999892
21
-128.7422190000000057
0
LINE
8
BLACK
6
CONTINUOUS
10
149.4175339999999892
20
-128.7422190000000057
11
149.512771999999984
21
-128.5517419999999902
0
LINE
8
BLACK
6
CONTINUOUS
10
149.512771999999984
20
-128.5517419999999902
11
149.7032480000000021
21
-128.4565039999999954
0
LINE
8
BLACK
6
CONTINUOUS
10
149.7032480000000021
20
-128.4565039999999954
11
150.0842010000000073
21
-128.4565039999999954
0
LINE
8
BLACK
6
CONTINUOUS
10
150.0842010000000073
20
-128.4565039999999954
11
150.274676999999997
21
-128.5517419999999902
0
LINE
8
BLACK
6
CONTINUOUS
10
150.274676999999997
20
-128.5517419999999902
11
150.3699149999999918
21
-128.7422190000000057
0
LINE
8
BLACK
6
CONTINUOUS
10
150.3699149999999918
20
-128.7422190000000057
11
150.3699149999999918
21
-128.9326949999999954
0
LINE
8
BLACK
6
CONTINUOUS
10
150.3699149999999918
20
-128.9326949999999954
11
149.4175339999999892
21
-129.123170999999985
0
LINE
8
BLACK
6
CONTINUOUS
10
151.1318200000000047
20
-129.6946000000000083
11
151.3222959999999944
21
-129.7898380000000031
0
LINE
8
BLACK
6
CONTINUOUS
10
151.3222959999999944
20
-129.7898380000000031
11
151.7032480000000021
21
-129.7898380000000031
0
LINE
8
BLACK
6
CONTINUOUS
10
151.7032480000000021
20
-129.7898380000000031
11
151.8937249999999892
21
-129.6946000000000083
0
LINE
8
BLACK
6
CONTINUOUS
10
151.8937249999999892
20
-129.6946000000000083
11
151.988962999999984
21
-129.5041229999999928
0
LINE
8
BLACK
6
CONTINUOUS
10
151.988962999999984
20
-129.5041229999999928
11
151.988962999999984
21
-129.4088849999999979
0
LINE
8
BLACK
6
CONTINUOUS
10
151.988962999999984
20
-129.4088849999999979
11
151.8937249999999892
21
-129.2184090000000083
0
LINE
8
BLACK
6
CONTINUOUS
10
151.8937249999999892
20
-129.2184090000000083
11
151.7032480000000021
21
-129.123170999999985
0
LINE
8
BLACK
6
CONTINUOUS
10
151.7032480000000021
20
-129.123170999999985
11
151.4175339999999892
21
-129.123170999999985
0
LINE
8
BLACK
6
CONTINUOUS
10
151.4175339999999892
20
-129.123170999999985
11
151.2270579999999995
21
-129.0279329999999902
0
LINE
8
BLACK
6
CONTINUOUS
10
151.2270579999999995
20
-129.0279329999999902
11
151.1318200000000047
21
-128.8374570000000006
0
LINE
8
BLACK
6
CONTINUOUS
10
151.1318200000000047
20
-128.8374570000000006
11
151.1318200000000047
21
-128.7422190000000057
0
LINE
8
BLACK
6
CONTINUOUS
10
151.1318200000000047
20
-128.7422190000000057
11
151.2270579999999995
21
-128.5517419999999902
0
LINE
8
BLACK
6
CONTINUOUS
10
151.2270579999999995
20
-128.5517419999999902
11
151.4175339999999892
21
-128.4565039999999954
0
LINE
8
BLACK
6
CONTINUOUS
10
151.4175339999999892
20
-128.4565039999999954
11
151.7032480000000021
21
-128.4565039999999954
0
LINE
8
BLACK
6
CONTINUOUS
10
151.7032480000000021
20
-128.4565039999999954
11
151.8937249999999892
21
-128.5517419999999902
0
LINE
8
BLACK
6
CONTINUOUS
10
152.6556300000000022
20
-130.5517419999999902
11
152.750867999999997
21
-130.4565039999999954
0
LINE
8
BLACK
6
CONTINUOUS
10
152.750867999999997
20
-130.4565039999999954
11
152.9413439999999866
21
-130.1707899999999825
0
LINE
8
BLACK
6
CONTINUOUS
10
152.9413439999999866
20
-130.1707899999999825
11
153.0365819999999815
21
-129.9803139999999928
0
LINE
8
BLACK
6
CONTINUOUS
10
153.0365819999999815
20
-129.9803139999999928
11
153.1318200000000047
21
-129.6946000000000083
0
LINE
8
BLACK
6
CONTINUOUS
10
153.1318200000000047
20
-129.6946000000000083
11
153.2270579999999995
21
-129.2184090000000083
0
LINE
8
BLACK
6
CONTINUOUS
10
153.2270579999999995
20
-129.2184090000000083
11
153.2270579999999995
21
-128.8374570000000006
0
LINE
8
BLACK
6
CONTINUOUS
10
153.2270579999999995
20
-128.8374570000000006
11
153.1318200000000047
21
-128.3612660000000005
0
LINE
8
BLACK
6
CONTINUOUS
10
153.1318200000000047
20
-128.3612660000000005
11
153.0365819999999815
21
-128.0755519999999876
0
LINE
8
BLACK
6
CONTINUOUS
10
153.0365819999999815
20
-128.0755519999999876
11
152.9413439999999866
21
-127.885075999999998
0
LINE
8
BLACK
6
CONTINUOUS
10
152.9413439999999866
20
-127.885075999999998
11
152.750867999999997
21
-127.5993609999999876
0
LINE
8
BLACK
6
CONTINUOUS
10
152.750867999999997
20
-127.5993609999999876
11
152.6556300000000022
21
-127.5041229999999928
0
LINE
8
BLACK
6
CONTINUOUS
10
156.2746779999999944
20
-130.5517419999999902
11
156.1794390000000021
21
-130.4565039999999954
0
LINE
8
BLACK
6
CONTINUOUS
10
156.1794390000000021
20
-130.4565039999999954
11
155.988962999999984
21
-130.1707899999999825
0
LINE
8
BLACK
6
CONTINUOUS
10
155.988962999999984
20
-130.1707899999999825
11
155.8937249999999892
21
-129.9803139999999928
0
LINE
8
BLACK
6
CONTINUOUS
10
155.8937249999999892
20
-129.9803139999999928
11
155.7984869999999944
21
-129.6946000000000083
0
LINE
8
BLACK
6
CONTINUOUS
10
155.7984869999999944
20
-129.6946000000000083
11
155.7032489999999996
21
-129.2184090000000083
0
LINE
8
BLACK
6
CONTINUOUS
10
155.7032489999999996
20
-129.2184090000000083
11
155.7032489999999996
21
-128.8374570000000006
0
LINE
8
BLACK
6
CONTINUOUS
10
155.7032489999999996
20
-128.8374570000000006
11
155.7984869999999944
21
-128.3612660000000005
0
LINE
8
BLACK
6
CONTINUOUS
10
155.7984869999999944
20
-128.3612660000000005
11
155.8937249999999892
21
-128.0755519999999876
0
LINE
8
BLACK
6
CONTINUOUS
10
155.8937249999999892
20
-128.0755519999999876
11
155.988962999999984
21
-127.885075999999998
0
LINE
8
BLACK
6
CONTINUOUS
10
155.988962999999984
20
-127.885075999999998
11
156.1794390000000021
21
-127.5993609999999876
0
LINE
8
BLACK
6
CONTINUOUS
10
156.1794390000000021
20
-127.5993609999999876
11
156.2746779999999944
21
-127.5041229999999928
0
LINE
8
BLACK
6
CONTINUOUS
10
157.0365819999999815
20
-128.4565039999999954
11
157.0365819999999815
21
-129.7898380000000031
0
LINE
8
BLACK
6
CONTINUOUS
10
157.0365819999999815
20
-128.646979999999985
11
157.1318200000000047
21
-128.5517419999999902
0
LINE
8
BLACK
6
CONTINUOUS
10
157.1318200000000047
20
-128.5517419999999902
11
157.3222959999999944
21
-128.4565039999999954
0
LINE
8
BLACK
6
CONTINUOUS
10
157.3222959999999944
20
-128.4565039999999954
11
157.6080110000000047
21
-128.4565039999999954
0
LINE
8
BLACK
6
CONTINUOUS
10
157.6080110000000047
20
-128.4565039999999954
11
157.7984869999999944
21
-128.5517419999999902
0
LINE
8
BLACK
6
CONTINUOUS
10
157.7984869999999944
20
-128.5517419999999902
11
157.8937249999999892
21
-128.7422190000000057
0
LINE
8
BLACK
6
CONTINUOUS
10
157.8937249999999892
20
-128.7422190000000057
11
157.8937249999999892
21
-129.7898380000000031
0
LINE
8
BLACK
6
CONTINUOUS
10
159.1318200000000047
20
-129.7898380000000031
11
158.9413439999999866
21
-129.6946000000000083
0
LINE
8
BLACK
6
CONTINUOUS
10
158.9413439999999866
20
-129.6946000000000083
11
158.8461059999999918
21
-129.5993609999999876
0
LINE
8
BLACK
6
CONTINUOUS
10
158.8461059999999918
20
-129.5993609999999876
11
158.750867999999997
21
-129.4088849999999979
0
LINE
8
BLACK
6
CONTINUOUS
10
158.750867999999997
20
-129.4088849999999979
11
158.750867999999997
21
-128.8374570000000006
0
LINE
8
BLACK
6
CONTINUOUS
10
158.750867999999997
20
-128.8374570000000006
11
158.8461059999999918
21
-128.646979999999985
0
LINE
8
BLACK
6
CONTINUOUS
10
158.8461059999999918
20
-128.646979999999985
11
158.9413439999999866
21
-128.5517419999999902
0
LINE
8
BLACK
6
CONTINUOUS
10
158.9413439999999866
20
-128.5517419999999902
11
159.1318200000000047
21
-128.4565039999999954
0
LINE
8
BLACK
6
CONTINUOUS
10
159.1318200000000047
20
-128.4565039999999954
11
159.4175349999999867
21
-128.4565039999999954
0
LINE
8
BLACK
6
CONTINUOUS
10
159.4175349999999867
20
-128.4565039999999954
11
159.6080110000000047
21
-128.5517419999999902
0
LINE
8
BLACK
6
CONTINUOUS
10
159.6080110000000047
20
-128.5517419999999902
11
159.7032489999999996
21
-128.646979999999985
0
LINE
8
BLACK
6
CONTINUOUS
10
159.7032489999999996
20
-128.646979999999985
11
159.7984869999999944
21
-128.8374570000000006
0
LINE
8
BLACK
6
CONTINUOUS
10
159.7984869999999944
20
-128.8374570000000006
11
159.7984869999999944
21
-129.4088849999999979
0
LINE
8
BLACK
6
CONTINUOUS
10
159.7984869999999944
20
-129.4088849999999979
11
159.7032489999999996
21
-129.5993609999999876
0
LINE
8
BLACK
6
CONTINUOUS
10
159.7032489999999996
20
-129.5993609999999876
11
159.6080110000000047
21
-129.6946000000000083
0
LINE
8
BLACK
6
CONTINUOUS
10
159.6080110000000047
20
-129.6946000000000083
11
159.4175349999999867
21
-129.7898380000000031
0
LINE
8
BLACK
6
CONTINUOUS
10
159.4175349999999867
20
-129.7898380000000031
11
159.1318200000000047
21
-129.7898380000000031
0
LINE
8
BLACK
6
CONTINUOUS
10
160.3699159999999893
20
-128.4565039999999954
11
161.1318200000000047
21
-128.4565039999999954
0
LINE
8
BLACK
6
CONTINUOUS
10
160.6556300000000022
20
-127.7898379999999889
11
160.6556300000000022
21
-129.5041229999999928
0
LINE
8
BLACK
6
CONTINUOUS
10
160.6556300000000022
20
-129.5041229999999928
11
160.750867999999997
21
-129.6946000000000083
0
LINE
8
BLACK
6
CONTINUOUS
10
160.750867999999997
20
-129.6946000000000083
11
160.9413439999999866
21
-129.7898380000000031
0
LINE
8
BLACK
6
CONTINUOUS
10
160.9413439999999866
20
-129.7898380000000031
11
161.1318200000000047
21
-129.7898380000000031
0
LINE
8
BLACK
6
CONTINUOUS
10
163.3222969999999918
20
-128.4565039999999954
11
163.3222969999999918
21
-130.4565039999999954
0
LINE
8
BLACK
6
CONTINUOUS
10
163.3222969999999918
20
-128.5517419999999902
11
163.5127729999999815
21
-128.4565039999999954
0
LINE
8
BLACK
6
CONTINUOUS
10
163.5127729999999815
20
-128.4565039999999954
11
163.8937259999999867
21
-128.4565039999999954
0
LINE
8
BLACK
6
CONTINUOUS
10
163.8937259999999867
20
-128.4565039999999954
11
164.0842020000000048
21
-128.5517419999999902
0
LINE
8
BLACK
6
CONTINUOUS
10
164.0842020000000048
20
-128.5517419999999902
11
164.1794399999999996
21
-128.646979999999985
0
LINE
8
BLACK
6
CONTINUOUS
10
164.1794399999999996
20
-128.646979999999985
11
164.2746779999999944
21
-128.8374570000000006
0
LINE
8
BLACK
6
CONTINUOUS
10
164.2746779999999944
20
-128.8374570000000006
11
164.2746779999999944
21
-129.4088849999999979
0
LINE
8
BLACK
6
CONTINUOUS
10
164.2746779999999944
20
-129.4088849999999979
11
164.1794399999999996
21
-129.5993609999999876
0
LINE
8
BLACK
6
CONTINUOUS
10
164.1794399999999996
20
-129.5993609999999876
11
164.0842020000000048
21
-129.6946000000000083
0
LINE
8
BLACK
6
CONTINUOUS
10
164.0842020000000048
20
-129.6946000000000083
11
163.8937259999999867
21
-129.7898380000000031
0
LINE
8
BLACK
6
CONTINUOUS
10
163.8937259999999867
20
-129.7898380000000031
11
163.5127729999999815
21
-129.7898380000000031
0
LINE
8
BLACK
6
CONTINUOUS
10
163.5127729999999815
20
-129.7898380000000031
11
163.3222969999999918
21
-129.6946000000000083
0
LINE
8
BLACK
6
CONTINUOUS
10
165.4175349999999867
20
-129.7898380000000031
11
165.227058999999997
21
-129.6946000000000083
0
LINE
8
BLACK
6
CONTINUOUS
10
165.227058999999997
20
-129.6946000000000083
11
165.1318210000000022
21
-129.5041229999999928
0
LINE
8
BLACK
6
CONTINUOUS
10
165.1318210000000022
20
-129.5041229999999928
11
165.1318210000000022
21
-127.7898379999999889
0
LINE
8
BLACK
6
CONTINUOUS
10
167.0365829999999789
20
-129.7898380000000031
11
167.0365829999999789
21
-128.7422190000000057
0
LINE
8
BLACK
6
CONTINUOUS
10
167.0365829999999789
20
-128.7422190000000057
11
166.9413449999999841
21
-128.5517419999999902
0
LINE
8
BLACK
6
CONTINUOUS
10
166.9413449999999841
20
-128.5517419999999902
11
166.7508689999999945
21
-128.4565039999999954
0
LINE
8
BLACK
6
CONTINUOUS
10
166.7508689999999945
20
-128.4565039999999954
11
166.3699159999999893
21
-128.4565039999999954
0
LINE
8
BLACK
6
CONTINUOUS
10
166.3699159999999893
20
-128.4565039999999954
11
166.1794399999999996
21
-128.5517419999999902
0
LINE
8
BLACK
6
CONTINUOUS
10
167.0365829999999789
20
-129.6946000000000083
11
166.8461069999999893
21
-129.7898380000000031
0
LINE
8
BLACK
6
CONTINUOUS
10
166.8461069999999893
20
-129.7898380000000031
11
166.3699159999999893
21
-129.7898380000000031
0
LINE
8
BLACK
6
CONTINUOUS
10
166.3699159999999893
20
-129.7898380000000031
11
166.1794399999999996
21
-129.6946000000000083
0
LINE
8
BLACK
6
CONTINUOUS
10
166.1794399999999996
20
-129.6946000000000083
11
166.0842020000000048
21
-129.5041229999999928
0
LINE
8
BLACK
6
CONTINUOUS
10
166.0842020000000048
20
-129.5041229999999928
11
166.0842020000000048
21
-129.3136470000000031
0
LINE
8
BLACK
6
CONTINUOUS
10
166.0842020000000048
20
-129.3136470000000031
11
166.1794399999999996
21
-129.123170999999985
0
LINE
8
BLACK
6
CONTINUOUS
10
166.1794399999999996
20
-129.123170999999985
11
166.3699159999999893
21
-129.0279329999999902
0
LINE
8
BLACK
6
CONTINUOUS
10
166.3699159999999893
20
-129.0279329999999902
11
166.8461069999999893
21
-129.0279329999999902
0
LINE
8
BLACK
6
CONTINUOUS
10
166.8461069999999893
20
-129.0279329999999902
11
167.0365829999999789
21
-128.9326949999999954
0
LINE
8
BLACK
6
CONTINUOUS
10
167.703249999999997
20
-128.4565039999999954
11
168.4651539999999841
21
-128.4565039999999954
0
LINE
8
BLACK
6
CONTINUOUS
10
167.9889639999999815
20
-127.7898379999999889
11
167.9889639999999815
21
-129.5041229999999928
0
LINE
8
BLACK
6
CONTINUOUS
10
167.9889639999999815
20
-129.5041229999999928
11
168.0842020000000048
21
-129.6946000000000083
0
LINE
8
BLACK
6
CONTINUOUS
10
168.0842020000000048
20
-129.6946000000000083
11
168.2746779999999944
21
-129.7898380000000031
0
LINE
8
BLACK
6
CONTINUOUS
10
168.2746779999999944
20
-129.7898380000000031
11
168.4651539999999841
21
-129.7898380000000031
0
LINE
8
BLACK
6
CONTINUOUS
10
169.8937259999999867
20
-129.6946000000000083
11
169.703249999999997
21
-129.7898380000000031
0
LINE
8
BLACK
6
CONTINUOUS
10
169.703249999999997
20
-129.7898380000000031
11
169.3222969999999918
21
-129.7898380000000031
0
LINE
8
BLACK
6
CONTINUOUS
10
169.3222969999999918
20
-129.7898380000000031
11
169.1318210000000022
21
-129.6946000000000083
0
LINE
8
BLACK
6
CONTINUOUS
10
169.1318210000000022
20
-129.6946000000000083
11
169.0365829999999789
21
-129.5041229999999928
0
LINE
8
BLACK
6
CONTINUOUS
10
169.0365829999999789
20
-129.5041229999999928
11
169.0365829999999789
21
-128.7422190000000057
0
LINE
8
BLACK
6
CONTINUOUS
10
169.0365829999999789
20
-128.7422190000000057
11
169.1318210000000022
21
-128.5517419999999902
0
LINE
8
BLACK
6
CONTINUOUS
10
169.1318210000000022
20
-128.5517419999999902
11
169.3222969999999918
21
-128.4565039999999954
0
LINE
8
BLACK
6
CONTINUOUS
10
169.3222969999999918
20
-128.4565039999999954
11
169.703249999999997
21
-128.4565039999999954
0
LINE
8
BLACK
6
CONTINUOUS
10
169.703249999999997
20
-128.4565039999999954
11
169.8937259999999867
21
-128.5517419999999902
0
LINE
8
BLACK
6
CONTINUOUS
10
169.8937259999999867
20
-128.5517419999999902
11
169.9889639999999815
21
-128.7422190000000057
0
LINE
8
BLACK
6
CONTINUOUS
10
169.9889639999999815
20
-128.7422190000000057
11
169.9889639999999815
21
-128.9326949999999954
0
LINE
8
BLACK
6
CONTINUOUS
10
169.9889639999999815
20
-128.9326949999999954
11
169.0365829999999789
21
-129.123170999999985
0
LINE
8
BLACK
6
CONTINUOUS
10
171.703249999999997
20
-129.7898380000000031
11
171.703249999999997
21
-127.7898379999999889
0
LINE
8
BLACK
6
CONTINUOUS
10
171.703249999999997
20
-129.6946000000000083
11
171.512773999999979
21
-129.7898380000000031
0
LINE
8
BLACK
6
CONTINUOUS
10
171.512773999999979
20
-129.7898380000000031
11
171.1318210000000022
21
-129.7898380000000031
0
LINE
8
BLACK
6
CONTINUOUS
10
171.1318210000000022
20
-129.7898380000000031
11
170.9413449999999841
21
-129.6946000000000083
0
LINE
8
BLACK
6
CONTINUOUS
10
170.9413449999999841
20
-129.6946000000000083
11
170.8461069999999893
21
-129.5993609999999876
0
LINE
8
BLACK
6
CONTINUOUS
10
170.8461069999999893
20
-129.5993609999999876
11
170.7508689999999945
21
-129.4088849999999979
0
LINE
8
BLACK
6
CONTINUOUS
10
170.7508689999999945
20
-129.4088849999999979
11
170.7508689999999945
21
-128.8374570000000006
0
LINE
8
BLACK
6
CONTINUOUS
10
170.7508689999999945
20
-128.8374570000000006
11
170.8461069999999893
21
-128.646979999999985
0
LINE
8
BLACK
6
CONTINUOUS
10
170.8461069999999893
20
-128.646979999999985
11
170.9413449999999841
21
-128.5517419999999902
0
LINE
8
BLACK
6
CONTINUOUS
10
170.9413449999999841
20
-128.5517419999999902
11
171.1318210000000022
21
-128.4565039999999954
0
LINE
8
BLACK
6
CONTINUOUS
10
171.1318210000000022
20
-128.4565039999999954
11
171.512773999999979
21
-128.4565039999999954
0
LINE
8
BLACK
6
CONTINUOUS
10
171.512773999999979
20
-128.4565039999999954
11
171.703249999999997
21
-128.5517419999999902
0
LINE
8
BLACK
6
CONTINUOUS
10
172.4651549999999816
20
-130.5517419999999902
11
172.5603930000000048
21
-130.4565039999999954
0
LINE
8
BLACK
6
CONTINUOUS
10
172.5603930000000048
20
-130.4565039999999954
11
172.7508689999999945
21
-130.1707899999999825
0
LINE
8
BLACK
6
CONTINUOUS
10
172.7508689999999945
20
-130.1707899999999825
11
172.8461069999999893
21
-129.9803139999999928
0
LINE
8
BLACK
6
CONTINUOUS
10
172.8461069999999893
20
-129.9803139999999928
11
172.9413449999999841
21
-129.6946000000000083
0
LINE
8
BLACK
6
CONTINUOUS
10
172.9413449999999841
20
-129.6946000000000083
11
173.0365829999999789
21
-129.2184090000000083
0
LINE
8
BLACK
6
CONTINUOUS
10
173.0365829999999789
20
-129.2184090000000083
11
173.0365829999999789
21
-128.8374570000000006
0
LINE
8
BLACK
6
CONTINUOUS
10
173.0365829999999789
20
-128.8374570000000006
11
172.9413449999999841
21
-128.3612660000000005
0
LINE
8
BLACK
6
CONTINUOUS
10
172.9413449999999841
20
-128.3612660000000005
11
172.8461069999999893
21
-128.0755519999999876
0
LINE
8
BLACK
6
CONTINUOUS
10
172.8461069999999893
20
-128.0755519999999876
11
172.7508689999999945
21
-127.885075999999998
0
LINE
8
BLACK
6
CONTINUOUS
10
172.7508689999999945
20
-127.885075999999998
11
172.5603930000000048
21
-127.5993609999999876
0
LINE
8
BLACK
6
CONTINUOUS
10
172.5603930000000048
20
-127.5993609999999876
11
172.4651549999999816
21
-127.5041229999999928
0
CIRCLE
8
BLACK
10
103.9050000000000011
20
-132.0749999999999886
40
1.
0
LINE
8
BLACK
6
CONTINUOUS
10
107.3222919999999903
20
-130.9898379999999918
11
108.5603869999999915
21
-130.9898379999999918
0
LINE
8
BLACK
6
CONTINUOUS
10
108.5603869999999915
20
-130.9898379999999918
11
107.8937200000000018
21
-131.7517420000000072
0
LINE
8
BLACK
6
CONTINUOUS
10
107.8937200000000018
20
-131.7517420000000072
11
108.179434999999998
21
-131.7517420000000072
0
LINE
8
BLACK
6
CONTINUOUS
10
108.179434999999998
20
-131.7517420000000072
11
108.3699110000000019
21
-131.8469800000000021
0
LINE
8
BLACK
6
CONTINUOUS
10
108.3699110000000019
20
-131.8469800000000021
11
108.4651489999999967
21
-131.9422189999999944
0
LINE
8
BLACK
6
CONTINUOUS
10
108.4651489999999967
20
-131.9422189999999944
11
108.5603869999999915
21
-132.132694999999984
0
LINE
8
BLACK
6
CONTINUOUS
10
108.5603869999999915
20
-132.132694999999984
11
108.5603869999999915
21
-132.6088849999999866
0
LINE
8
BLACK
6
CONTINUOUS
10
108.5603869999999915
20
-132.6088849999999866
11
108.4651489999999967
21
-132.7993610000000047
0
LINE
8
BLACK
6
CONTINUOUS
10
108.4651489999999967
20
-132.7993610000000047
11
108.3699110000000019
21
-132.894599999999997
0
LINE
8
BLACK
6
CONTINUOUS
10
108.3699110000000019
20
-132.894599999999997
11
108.179434999999998
21
-132.9898379999999918
0
LINE
8
BLACK
6
CONTINUOUS
10
108.179434999999998
20
-132.9898379999999918
11
107.6080059999999889
21
-132.9898379999999918
0
LINE
8
BLACK
6
CONTINUOUS
10
107.6080059999999889
20
-132.9898379999999918
11
107.4175299999999993
21
-132.894599999999997
0
LINE
8
BLACK
6
CONTINUOUS
10
107.4175299999999993
20
-132.894599999999997
11
107.3222919999999903
21
-132.7993610000000047
0
LINE
8
BLACK
6
CONTINUOUS
10
109.4175299999999993
20
-132.7993610000000047
11
109.5127679999999941
21
-132.894599999999997
0
LINE
8
BLACK
6
CONTINUOUS
10
109.5127679999999941
20
-132.894599999999997
11
109.4175299999999993
21
-132.9898379999999918
0
LINE
8
BLACK
6
CONTINUOUS
10
109.4175299999999993
20
-132.9898379999999918
11
109.3222919999999903
21
-132.894599999999997
0
LINE
8
BLACK
6
CONTINUOUS
10
109.3222919999999903
20
-132.894599999999997
11
109.4175299999999993
21
-132.7993610000000047
0
LINE
8
BLACK
6
CONTINUOUS
10
109.4175299999999993
20
-132.7993610000000047
11
109.4175299999999993
21
-132.9898379999999918
0
LINE
8
BLACK
6
CONTINUOUS
10
110.2746729999999928
20
-131.1803139999999814
11
110.3699110000000019
21
-131.0850759999999866
0
LINE
8
BLACK
6
CONTINUOUS
10
110.3699110000000019
20
-131.0850759999999866
11
110.5603869999999915
21
-130.9898379999999918
0
LINE
8
BLACK
6
CONTINUOUS
10
110.5603869999999915
20
-130.9898379999999918
11
111.0365779999999916
21
-130.9898379999999918
0
LINE
8
BLACK
6
CONTINUOUS
10
111.0365779999999916
20
-130.9898379999999918
11
111.2270539999999954
21
-131.0850759999999866
0
LINE
8
BLACK
6
CONTINUOUS
10
111.2270539999999954
20
-131.0850759999999866
11
111.3222919999999903
21
-131.1803139999999814
0
LINE
8
BLACK
6
CONTINUOUS
10
111.3222919999999903
20
-131.1803139999999814
11
111.4175299999999993
21
-131.3707899999999995
0
LINE
8
BLACK
6
CONTINUOUS
10
111.4175299999999993
20
-131.3707899999999995
11
111.4175299999999993
21
-131.5612659999999892
0
LINE
8
BLACK
6
CONTINUOUS
10
111.4175299999999993
20
-131.5612659999999892
11
111.3222919999999903
21
-131.8469800000000021
0
LINE
8
BLACK
6
CONTINUOUS
10
111.3222919999999903
20
-131.8469800000000021
11
110.179434999999998
21
-132.9898379999999918
0
LINE
8
BLACK
6
CONTINUOUS
10
110.179434999999998
20
-132.9898379999999918
11
111.4175299999999993
21
-132.9898379999999918
0
LINE
8
BLACK
6
CONTINUOUS
10
112.6556250000000006
20
-130.9898379999999918
11
112.8461020000000019
21
-130.9898379999999918
0
LINE
8
BLACK
6
CONTINUOUS
10
112.8461020000000019
20
-130.9898379999999918
11
113.0365779999999916
21
-131.0850759999999866
0
LINE
8
BLACK
6
CONTINUOUS
10
113.0365779999999916
20
-131.0850759999999866
11
113.1318160000000006
21
-131.1803139999999814
0
LINE
8
BLACK
6
CONTINUOUS
10
113.1318160000000006
20
-131.1803139999999814
11
113.2270539999999954
21
-131.3707899999999995
0
LINE
8
BLACK
6
CONTINUOUS
10
113.2270539999999954
20
-131.3707899999999995
11
113.3222919999999903
21
-131.7517420000000072
0
LINE
8
BLACK
6
CONTINUOUS
10
113.3222919999999903
20
-131.7517420000000072
11
113.3222919999999903
21
-132.2279330000000073
0
LINE
8
BLACK
6
CONTINUOUS
10
113.3222919999999903
20
-132.2279330000000073
11
113.2270539999999954
21
-132.6088849999999866
0
LINE
8
BLACK
6
CONTINUOUS
10
113.2270539999999954
20
-132.6088849999999866
11
113.1318160000000006
21
-132.7993610000000047
0
LINE
8
BLACK
6
CONTINUOUS
10
113.1318160000000006
20
-132.7993610000000047
11
113.0365779999999916
21
-132.894599999999997
0
LINE
8
BLACK
6
CONTINUOUS
10
113.0365779999999916
20
-132.894599999999997
11
112.8461020000000019
21
-132.9898379999999918
0
LINE
8
BLACK
6
CONTINUOUS
10
112.8461020000000019
20
-132.9898379999999918
11
112.6556250000000006
21
-132.9898379999999918
0
LINE
8
BLACK
6
CONTINUOUS
10
112.6556250000000006
20
-132.9898379999999918
11
112.4651489999999967
21
-132.894599999999997
0
LINE
8
BLACK
6
CONTINUOUS
10
112.4651489999999967
20
-132.894599999999997
11
112.3699110000000019
21
-132.7993610000000047
0
LINE
8
BLACK
6
CONTINUOUS
10
112.3699110000000019
20
-132.7993610000000047
11
112.2746729999999928
21
-132.6088849999999866
0
LINE
8
BLACK
6
CONTINUOUS
10
112.2746729999999928
20
-132.6088849999999866
11
112.179434999999998
21
-132.2279330000000073
0
LINE
8
BLACK
6
CONTINUOUS
10
112.179434999999998
20
-132.2279330000000073
11
112.179434999999998
21
-131.7517420000000072
0
LINE
8
BLACK
6
CONTINUOUS
10
112.179434999999998
20
-131.7517420000000072
11
112.2746729999999928
21
-131.3707899999999995
0
LINE
8
BLACK
6
CONTINUOUS
10
112.2746729999999928
20
-131.3707899999999995
11
112.3699110000000019
21
-131.1803139999999814
0
LINE
8
BLACK
6
CONTINUOUS
10
112.3699110000000019
20
-131.1803139999999814
11
112.4651489999999967
21
-131.0850759999999866
0
LINE
8
BLACK
6
CONTINUOUS
10
112.4651489999999967
20
-131.0850759999999866
11
112.6556250000000006
21
-130.9898379999999918
0
LINE
8
BLACK
6
CONTINUOUS
10
114.5603869999999915
20
-130.9898379999999918
11
114.7508639999999929
21
-130.9898379999999918
0
LINE
8
BLACK
6
CONTINUOUS
10
114.7508639999999929
20
-130.9898379999999918
11
114.9413399999999967
21
-131.0850759999999866
0
LINE
8
BLACK
6
CONTINUOUS
10
114.9413399999999967
20
-131.0850759999999866
11
115.0365779999999916
21
-131.1803139999999814
0
LINE
8
BLACK
6
CONTINUOUS
10
115.0365779999999916
20
-131.1803139999999814
11
115.1318160000000006
21
-131.3707899999999995
0
LINE
8
BLACK
6
CONTINUOUS
10
115.1318160000000006
20
-131.3707899999999995
11
115.2270539999999954
21
-131.7517420000000072
0
LINE
8
BLACK
6
CONTINUOUS
10
115.2270539999999954
20
-131.7517420000000072
11
115.2270539999999954
21
-132.2279330000000073
0
LINE
8
BLACK
6
CONTINUOUS
10
115.2270539999999954
20
-132.2279330000000073
11
115.1318160000000006
21
-132.6088849999999866
0
LINE
8
BLACK
6
CONTINUOUS
10
115.1318160000000006
20
-132.6088849999999866
11
115.0365779999999916
21
-132.7993610000000047
0
LINE
8
BLACK
6
CONTINUOUS
10
115.0365779999999916
20
-132.7993610000000047
11
114.9413399999999967
21
-132.894599999999997
0
LINE
8
BLACK
6
CONTINUOUS
10
114.9413399999999967
20
-132.894599999999997
11
114.7508639999999929
21
-132.9898379999999918
0
LINE
8
BLACK
6
CONTINUOUS
10
114.7508639999999929
20
-132.9898379999999918
11
114.5603869999999915
21
-132.9898379999999918
0
LINE
8
BLACK
6
CONTINUOUS
10
114.5603869999999915
20
-132.9898379999999918
11
114.3699110000000019
21
-132.894599999999997
0
LINE
8
BLACK
6
CONTINUOUS
10
114.3699110000000019
20
-132.894599999999997
11
114.2746729999999928
21
-132.7993610000000047
0
LINE
8
BLACK
6
CONTINUOUS
10
114.2746729999999928
20
-132.7993610000000047
11
114.179434999999998
21
-132.6088849999999866
0
LINE
8
BLACK
6
CONTINUOUS
10
114.179434999999998
20
-132.6088849999999866
11
114.084196999999989
21
-132.2279330000000073
0
LINE
8
BLACK
6
CONTINUOUS
10
114.084196999999989
20
-132.2279330000000073
11
114.084196999999989
21
-131.7517420000000072
0
LINE
8
BLACK
6
CONTINUOUS
10
114.084196999999989
20
-131.7517420000000072
11
114.179434999999998
21
-131.3707899999999995
0
LINE
8
BLACK
6
CONTINUOUS
10
114.179434999999998
20
-131.3707899999999995
11
114.2746729999999928
21
-131.1803139999999814
0
LINE
8
BLACK
6
CONTINUOUS
10
114.2746729999999928
20
-131.1803139999999814
11
114.3699110000000019
21
-131.0850759999999866
0
LINE
8
BLACK
6
CONTINUOUS
10
114.3699110000000019
20
-131.0850759999999866
11
114.5603869999999915
21
-130.9898379999999918
0
LINE
8
BLACK
6
CONTINUOUS
10
116.084196999999989
20
-132.9898379999999918
11
116.084196999999989
21
-131.656503999999984
0
LINE
8
BLACK
6
CONTINUOUS
10
116.084196999999989
20
-131.8469800000000021
11
116.179434999999998
21
-131.7517420000000072
0
LINE
8
BLACK
6
CONTINUOUS
10
116.179434999999998
20
-131.7517420000000072
11
116.3699109999999877
21
-131.656503999999984
0
LINE
8
BLACK
6
CONTINUOUS
10
116.3699109999999877
20
-131.656503999999984
11
116.655625999999998
21
-131.656503999999984
0
LINE
8
BLACK
6
CONTINUOUS
10
116.655625999999998
20
-131.656503999999984
11
116.8461019999999877
21
-131.7517420000000072
0
LINE
8
BLACK
6
CONTINUOUS
10
116.8461019999999877
20
-131.7517420000000072
11
116.9413399999999967
21
-131.9422189999999944
0
LINE
8
BLACK
6
CONTINUOUS
10
116.9413399999999967
20
-131.9422189999999944
11
116.9413399999999967
21
-132.9898379999999918
0
LINE
8
BLACK
6
CONTINUOUS
10
116.9413399999999967
20
-131.9422189999999944
11
117.0365779999999916
21
-131.7517420000000072
0
LINE
8
BLACK
6
CONTINUOUS
10
117.0365779999999916
20
-131.7517420000000072
11
117.2270539999999954
21
-131.656503999999984
0
LINE
8
BLACK
6
CONTINUOUS
10
117.2270539999999954
20
-131.656503999999984
11
117.5127679999999941
21
-131.656503999999984
0
LINE
8
BLACK
6
CONTINUOUS
10
117.5127679999999941
20
-131.656503999999984
11
117.7032449999999955
21
-131.7517420000000072
0
LINE
8
BLACK
6
CONTINUOUS
10
117.7032449999999955
20
-131.7517420000000072
11
117.7984829999999903
21
-131.9422189999999944
0
LINE
8
BLACK
6
CONTINUOUS
10
117.7984829999999903
20
-131.9422189999999944
11
117.7984829999999903
21
-132.9898379999999918
0
LINE
8
BLACK
6
CONTINUOUS
10
118.7508639999999929
20
-132.9898379999999918
11
118.7508639999999929
21
-131.656503999999984
0
LINE
8
BLACK
6
CONTINUOUS
10
118.7508639999999929
20
-131.8469800000000021
11
118.8461019999999877
21
-131.7517420000000072
0
LINE
8
BLACK
6
CONTINUOUS
10
118.8461019999999877
20
-131.7517420000000072
11
119.0365779999999916
21
-131.656503999999984
0
LINE
8
BLACK
6
CONTINUOUS
10
119.0365779999999916
20
-131.656503999999984
11
119.3222929999999877
21
-131.656503999999984
0
LINE
8
BLACK
6
CONTINUOUS
10
119.3222929999999877
20
-131.656503999999984
11
119.5127689999999916
21
-131.7517420000000072
0
LINE
8
BLACK
6
CONTINUOUS
10
119.5127689999999916
20
-131.7517420000000072
11
119.6080070000000006
21
-131.9422189999999944
0
LINE
8
BLACK
6
CONTINUOUS
10
119.6080070000000006
20
-131.9422189999999944
11
119.6080070000000006
21
-132.9898379999999918
0
LINE
8
BLACK
6
CONTINUOUS
10
119.6080070000000006
20
-131.9422189999999944
11
119.7032449999999955
21
-131.7517420000000072
0
LINE
8
BLACK
6
CONTINUOUS
10
119.7032449999999955
20
-131.7517420000000072
11
119.8937209999999993
21
-131.656503999999984
0
LINE
8
BLACK
6
CONTINUOUS
10
119.8937209999999993
20
-131.656503999999984
11
120.179434999999998
21
-131.656503999999984
0
LINE
8
BLACK
6
CONTINUOUS
10
120.179434999999998
20
-131.656503999999984
11
120.3699119999999994
21
-131.7517420000000072
0
LINE
8
BLACK
6
CONTINUOUS
10
120.3699119999999994
20
-131.7517420000000072
11
120.4651499999999942
21
-131.9422189999999944
0
LINE
8
BLACK
6
CONTINUOUS
10
120.4651499999999942
20
-131.9422189999999944
11
120.4651499999999942
21
-132.9898379999999918
0
LINE
8
BLACK
6
CONTINUOUS
10
124.3699119999999994
20
-130.894599999999997
11
122.6556269999999955
21
-133.4660279999999943
0
LINE
8
BLACK
6
CONTINUOUS
10
126.9413409999999942
20
-130.9898379999999918
11
127.1318179999999955
21
-130.9898379999999918
0
LINE
8
BLACK
6
CONTINUOUS
10
127.1318179999999955
20
-130.9898379999999918
11
127.3222939999999994
21
-131.0850759999999866
0
LINE
8
BLACK
6
CONTINUOUS
10
127.3222939999999994
20
-131.0850759999999866
11
127.4175319999999942
21
-131.1803139999999814
0
LINE
8
BLACK
6
CONTINUOUS
10
127.4175319999999942
20
-131.1803139999999814
11
127.5127699999999891
21
-131.3707899999999995
0
LINE
8
BLACK
6
CONTINUOUS
10
127.5127699999999891
20
-131.3707899999999995
11
127.6080079999999981
21
-131.7517420000000072
0
LINE
8
BLACK
6
CONTINUOUS
10
127.6080079999999981
20
-131.7517420000000072
11
127.6080079999999981
21
-132.2279330000000073
0
LINE
8
BLACK
6
CONTINUOUS
10
127.6080079999999981
20
-132.2279330000000073
11
127.5127699999999891
21
-132.6088849999999866
0
LINE
8
BLACK
6
CONTINUOUS
10
127.5127699999999891
20
-132.6088849999999866
11
127.4175319999999942
21
-132.7993610000000047
0
LINE
8
BLACK
6
CONTINUOUS
10
127.4175319999999942
20
-132.7993610000000047
11
127.3222939999999994
21
-132.894599999999997
0
LINE
8
BLACK
6
CONTINUOUS
10
127.3222939999999994
20
-132.894599999999997
11
127.1318179999999955
21
-132.9898379999999918
0
LINE
8
BLACK
6
CONTINUOUS
10
127.1318179999999955
20
-132.9898379999999918
11
126.9413409999999942
21
-132.9898379999999918
0
LINE
8
BLACK
6
CONTINUOUS
10
126.9413409999999942
20
-132.9898379999999918
11
126.7508649999999903
21
-132.894599999999997
0
LINE
8
BLACK
6
CONTINUOUS
10
126.7508649999999903
20
-132.894599999999997
11
126.6556269999999955
21
-132.7993610000000047
0
LINE
8
BLACK
6
CONTINUOUS
10
126.6556269999999955
20
-132.7993610000000047
11
126.5603890000000007
21
-132.6088849999999866
0
LINE
8
BLACK
6
CONTINUOUS
10
126.5603890000000007
20
-132.6088849999999866
11
126.4651509999999917
21
-132.2279330000000073
0
LINE
8
BLACK
6
CONTINUOUS
10
126.4651509999999917
20
-132.2279330000000073
11
126.4651509999999917
21
-131.7517420000000072
0
LINE
8
BLACK
6
CONTINUOUS
10
126.4651509999999917
20
-131.7517420000000072
11
126.5603890000000007
21
-131.3707899999999995
0
LINE
8
BLACK
6
CONTINUOUS
10
126.5603890000000007
20
-131.3707899999999995
11
126.6556269999999955
21
-131.1803139999999814
0
LINE
8
BLACK
6
CONTINUOUS
10
126.6556269999999955
20
-131.1803139999999814
11
126.7508649999999903
21
-131.0850759999999866
0
LINE
8
BLACK
6
CONTINUOUS
10
126.7508649999999903
20
-131.0850759999999866
11
126.9413409999999942
21
-130.9898379999999918
0
LINE
8
BLACK
6
CONTINUOUS
10
128.4651509999999917
20
-132.7993610000000047
11
128.5603889999999865
21
-132.894599999999997
0
LINE
8
BLACK
6
CONTINUOUS
10
128.5603889999999865
20
-132.894599999999997
11
128.4651509999999917
21
-132.9898379999999918
0
LINE
8
BLACK
6
CONTINUOUS
10
128.4651509999999917
20
-132.9898379999999918
11
128.3699129999999968
21
-132.894599999999997
0
LINE
8
BLACK
6
CONTINUOUS
10
128.3699129999999968
20
-132.894599999999997
11
128.4651509999999917
21
-132.7993610000000047
0
LINE
8
BLACK
6
CONTINUOUS
10
128.4651509999999917
20
-132.7993610000000047
11
128.4651509999999917
21
-132.9898379999999918
0
LINE
8
BLACK
6
CONTINUOUS
10
130.4651509999999917
20
-132.9898379999999918
11
129.3222939999999994
21
-132.9898379999999918
0
LINE
8
BLACK
6
CONTINUOUS
10
129.8937219999999968
20
-132.9898379999999918
11
129.8937219999999968
21
-130.9898379999999918
0
LINE
8
BLACK
6
CONTINUOUS
10
129.8937219999999968
20
-130.9898379999999918
11
129.7032460000000071
21
-131.2755520000000047
0
LINE
8
BLACK
6
CONTINUOUS
10
129.7032460000000071
20
-131.2755520000000047
11
129.5127699999999891
21
-131.4660279999999943
0
LINE
8
BLACK
6
CONTINUOUS
10
129.5127699999999891
20
-131.4660279999999943
11
129.3222939999999994
21
-131.5612659999999892
0
LINE
8
BLACK
6
CONTINUOUS
10
131.2270560000000046
20
-131.1803139999999814
11
131.3222939999999994
21
-131.0850759999999866
0
LINE
8
BLACK
6
CONTINUOUS
10
131.3222939999999994
20
-131.0850759999999866
11
131.5127699999999891
21
-130.9898379999999918
0
LINE
8
BLACK
6
CONTINUOUS
10
131.5127699999999891
20
-130.9898379999999918
11
131.9889609999999891
21
-130.9898379999999918
0
LINE
8
BLACK
6
CONTINUOUS
10
131.9889609999999891
20
-130.9898379999999918
11
132.1794370000000072
21
-131.0850759999999866
0
LINE
8
BLACK
6
CONTINUOUS
10
132.1794370000000072
20
-131.0850759999999866
11
132.274675000000002
21
-131.1803139999999814
0
LINE
8
BLACK
6
CONTINUOUS
10
132.274675000000002
20
-131.1803139999999814
11
132.3699129999999968
21
-131.3707899999999995
0
LINE
8
BLACK
6
CONTINUOUS
10
132.3699129999999968
20
-131.3707899999999995
11
132.3699129999999968
21
-131.5612659999999892
0
LINE
8
BLACK
6
CONTINUOUS
10
132.3699129999999968
20
-131.5612659999999892
11
132.274675000000002
21
-131.8469800000000021
0
LINE
8
BLACK
6
CONTINUOUS
10
132.274675000000002
20
-131.8469800000000021
11
131.1318179999999813
21
-132.9898379999999918
0
LINE
8
BLACK
6
CONTINUOUS
10
131.1318179999999813
20
-132.9898379999999918
11
132.3699129999999968
21
-132.9898379999999918
0
LINE
8
BLACK
6
CONTINUOUS
10
134.0841989999999839
20
-130.9898379999999918
11
133.7032460000000071
21
-130.9898379999999918
0
LINE
8
BLACK
6
CONTINUOUS
10
133.7032460000000071
20
-130.9898379999999918
11
133.5127699999999891
21
-131.0850759999999866
0
LINE
8
BLACK
6
CONTINUOUS
10
133.5127699999999891
20
-131.0850759999999866
11
133.4175319999999942
21
-131.1803139999999814
0
LINE
8
BLACK
6
CONTINUOUS
10
133.4175319999999942
20
-131.1803139999999814
11
133.2270560000000046
21
-131.4660279999999943
0
LINE
8
BLACK
6
CONTINUOUS
10
133.2270560000000046
20
-131.4660279999999943
11
133.1318179999999813
21
-131.8469800000000021
0
LINE
8
BLACK
6
CONTINUOUS
10
133.1318179999999813
20
-131.8469800000000021
11
133.1318179999999813
21
-132.6088849999999866
0
LINE
8
BLACK
6
CONTINUOUS
10
133.1318179999999813
20
-132.6088849999999866
11
133.2270560000000046
21
-132.7993610000000047
0
LINE
8
BLACK
6
CONTINUOUS
10
133.2270560000000046
20
-132.7993610000000047
11
133.3222939999999994
21
-132.894599999999997
0
LINE
8
BLACK
6
CONTINUOUS
10
133.3222939999999994
20
-132.894599999999997
11
133.5127699999999891
21
-132.9898379999999918
0
LINE
8
BLACK
6
CONTINUOUS
10
133.5127699999999891
20
-132.9898379999999918
11
133.8937229999999943
21
-132.9898379999999918
0
LINE
8
BLACK
6
CONTINUOUS
10
133.8937229999999943
20
-132.9898379999999918
11
134.0841989999999839
21
-132.894599999999997
0
LINE
8
BLACK
6
CONTINUOUS
10
134.0841989999999839
20
-132.894599999999997
11
134.1794370000000072
21
-132.7993610000000047
0
LINE
8
BLACK
6
CONTINUOUS
10
134.1794370000000072
20
-132.7993610000000047
11
134.274675000000002
21
-132.6088849999999866
0
LINE
8
BLACK
6
CONTINUOUS
10
134.274675000000002
20
-132.6088849999999866
11
134.274675000000002
21
-132.132694999999984
0
LINE
8
BLACK
6
CONTINUOUS
10
134.274675000000002
20
-132.132694999999984
11
134.1794370000000072
21
-131.9422189999999944
0
LINE
8
BLACK
6
CONTINUOUS
10
134.1794370000000072
20
-131.9422189999999944
11
134.0841989999999839
21
-131.8469800000000021
0
LINE
8
BLACK
6
CONTINUOUS
10
134.0841989999999839
20
-131.8469800000000021
11
133.8937229999999943
21
-131.7517420000000072
0
LINE
8
BLACK
6
CONTINUOUS
10
133.8937229999999943
20
-131.7517420000000072
11
133.5127699999999891
21
-131.7517420000000072
0
LINE
8
BLACK
6
CONTINUOUS
10
133.5127699999999891
20
-131.7517420000000072
11
133.3222939999999994
21
-131.8469800000000021
0
LINE
8
BLACK
6
CONTINUOUS
10
133.3222939999999994
20
-131.8469800000000021
11
133.2270560000000046
21
-131.9422189999999944
0
LINE
8
BLACK
6
CONTINUOUS
10
133.2270560000000046
20
-131.9422189999999944
11
133.1318179999999813
21
-132.132694999999984
0
LINE
8
BLACK
6
CONTINUOUS
10
135.5127699999999891
20
-130.9898379999999918
11
135.7032470000000046
21
-130.9898379999999918
0
LINE
8
BLACK
6
CONTINUOUS
10
135.7032470000000046
20
-130.9898379999999918
11
135.8937229999999943
21
-131.0850759999999866
0
LINE
8
BLACK
6
CONTINUOUS
10
135.8937229999999943
20
-131.0850759999999866
11
135.9889609999999891
21
-131.1803139999999814
0
LINE
8
BLACK
6
CONTINUOUS
10
135.9889609999999891
20
-131.1803139999999814
11
136.0841989999999839
21
-131.3707899999999995
0
LINE
8
BLACK
6
CONTINUOUS
10
136.0841989999999839
20
-131.3707899999999995
11
136.1794370000000072
21
-131.7517420000000072
0
LINE
8
BLACK
6
CONTINUOUS
10
136.1794370000000072
20
-131.7517420000000072
11
136.1794370000000072
21
-132.2279330000000073
0
LINE
8
BLACK
6
CONTINUOUS
10
136.1794370000000072
20
-132.2279330000000073
11
136.0841989999999839
21
-132.6088849999999866
0
LINE
8
BLACK
6
CONTINUOUS
10
136.0841989999999839
20
-132.6088849999999866
11
135.9889609999999891
21
-132.7993610000000047
0
LINE
8
BLACK
6
CONTINUOUS
10
135.9889609999999891
20
-132.7993610000000047
11
135.8937229999999943
21
-132.894599999999997
0
LINE
8
BLACK
6
CONTINUOUS
10
135.8937229999999943
20
-132.894599999999997
11
135.7032470000000046
21
-132.9898379999999918
0
LINE
8
BLACK
6
CONTINUOUS
10
135.7032470000000046
20
-132.9898379999999918
11
135.5127699999999891
21
-132.9898379999999918
0
LINE
8
BLACK
6
CONTINUOUS
10
135.5127699999999891
20
-132.9898379999999918
11
135.3222939999999994
21
-132.894599999999997
0
LINE
8
BLACK
6
CONTINUOUS
10
135.3222939999999994
20
-132.894599999999997
11
135.2270560000000046
21
-132.7993610000000047
0
LINE
8
BLACK
6
CONTINUOUS
10
135.2270560000000046
20
-132.7993610000000047
11
135.1318179999999813
21
-132.6088849999999866
0
LINE
8
BLACK
6
CONTINUOUS
10
135.1318179999999813
20
-132.6088849999999866
11
135.0365799999999865
21
-132.2279330000000073
0
LINE
8
BLACK
6
CONTINUOUS
10
135.0365799999999865
20
-132.2279330000000073
11
135.0365799999999865
21
-131.7517420000000072
0
LINE
8
BLACK
6
CONTINUOUS
10
135.0365799999999865
20
-131.7517420000000072
11
135.1318179999999813
21
-131.3707899999999995
0
LINE
8
BLACK
6
CONTINUOUS
10
135.1318179999999813
20
-131.3707899999999995
11
135.2270560000000046
21
-131.1803139999999814
0
LINE
8
BLACK
6
CONTINUOUS
10
135.2270560000000046
20
-131.1803139999999814
11
135.3222939999999994
21
-131.0850759999999866
0
LINE
8
BLACK
6
CONTINUOUS
10
135.3222939999999994
20
-131.0850759999999866
11
135.5127699999999891
21
-130.9898379999999918
0
LINE
8
BLACK
6
CONTINUOUS
10
136.9413419999999917
20
-130.9898379999999918
11
136.9413419999999917
21
-131.3707899999999995
0
LINE
8
BLACK
6
CONTINUOUS
10
137.7032470000000046
20
-130.9898379999999918
11
137.7032470000000046
21
-131.3707899999999995
0
LINE
8
BLACK
6
CONTINUOUS
10
140.6556290000000047
20
-133.7517420000000072
11
140.560389999999984
21
-133.656503999999984
0
LINE
8
BLACK
6
CONTINUOUS
10
140.560389999999984
20
-133.656503999999984
11
140.3699139999999943
21
-133.3707899999999995
0
LINE
8
BLACK
6
CONTINUOUS
10
140.3699139999999943
20
-133.3707899999999995
11
140.2746759999999995
21
-133.1803139999999814
0
LINE
8
BLACK
6
CONTINUOUS
10
140.2746759999999995
20
-133.1803139999999814
11
140.1794380000000046
21
-132.894599999999997
0
LINE
8
BLACK
6
CONTINUOUS
10
140.1794380000000046
20
-132.894599999999997
11
140.0841999999999814
21
-132.4184089999999969
0
LINE
8
BLACK
6
CONTINUOUS
10
140.0841999999999814
20
-132.4184089999999969
11
140.0841999999999814
21
-132.0374569999999892
0
LINE
8
BLACK
6
CONTINUOUS
10
140.0841999999999814
20
-132.0374569999999892
11
140.1794380000000046
21
-131.5612659999999892
0
LINE
8
BLACK
6
CONTINUOUS
10
140.1794380000000046
20
-131.5612659999999892
11
140.2746759999999995
21
-131.2755520000000047
0
LINE
8
BLACK
6
CONTINUOUS
10
140.2746759999999995
20
-131.2755520000000047
11
140.3699139999999943
21
-131.0850759999999866
0
LINE
8
BLACK
6
CONTINUOUS
10
140.3699139999999943
20
-131.0850759999999866
11
140.560389999999984
21
-130.7993610000000047
0
LINE
8
BLACK
6
CONTINUOUS
10
140.560389999999984
20
-130.7993610000000047
11
140.6556290000000047
21
-130.7041229999999814
0
LINE
8
BLACK
6
CONTINUOUS
10
142.3699139999999943
20
-130.9898379999999918
11
141.4175329999999917
21
-130.9898379999999918
0
LINE
8
BLACK
6
CONTINUOUS
10
141.4175329999999917
20
-130.9898379999999918
11
141.3222949999999969
21
-131.9422189999999944
0
LINE
8
BLACK
6
CONTINUOUS
10
141.3222949999999969
20
-131.9422189999999944
11
141.4175329999999917
21
-131.8469800000000021
0
LINE
8
BLACK
6
CONTINUOUS
10
141.4175329999999917
20
-131.8469800000000021
11
141.6080089999999814
21
-131.7517420000000072
0
LINE
8
BLACK
6
CONTINUOUS
10
141.6080089999999814
20
-131.7517420000000072
11
142.0841999999999814
21
-131.7517420000000072
0
LINE
8
BLACK
6
CONTINUOUS
10
142.0841999999999814
20
-131.7517420000000072
11
142.2746759999999995
21
-131.8469800000000021
0
LINE
8
BLACK
6
CONTINUOUS
10
142.2746759999999995
20
-131.8469800000000021
11
142.3699139999999943
21
-131.9422189999999944
0
LINE
8
BLACK
6
CONTINUOUS
10
142.3699139999999943
20
-131.9422189999999944
11
142.4651519999999891
21
-132.132694999999984
0
LINE
8
BLACK
6
CONTINUOUS
10
142.4651519999999891
20
-132.132694999999984
11
142.4651519999999891
21
-132.6088849999999866
0
LINE
8
BLACK
6
CONTINUOUS
10
142.4651519999999891
20
-132.6088849999999866
11
142.3699139999999943
21
-132.7993610000000047
0
LINE
8
BLACK
6
CONTINUOUS
10
142.3699139999999943
20
-132.7993610000000047
11
142.2746759999999995
21
-132.894599999999997
0
LINE
8
BLACK
6
CONTINUOUS
10
142.2746759999999995
20
-132.894599999999997
11
142.0841999999999814
21
-132.9898379999999918
0
LINE
8
BLACK
6
CONTINUOUS
10
142.0841999999999814
20
-132.9898379999999918
11
141.6080089999999814
21
-132.9898379999999918
0
LINE
8
BLACK
6
CONTINUOUS
10
141.6080089999999814
20
-132.9898379999999918
11
141.4175329999999917
21
-132.894599999999997
0
LINE
8
BLACK
6
CONTINUOUS
10
141.4175329999999917
20
-132.894599999999997
11
141.3222949999999969
21
-132.7993610000000047
0
LINE
8
BLACK
6
CONTINUOUS
10
144.8461049999999943
20
-132.9898379999999918
11
144.8461049999999943
21
-130.9898379999999918
0
LINE
8
BLACK
6
CONTINUOUS
10
145.7032480000000021
20
-132.9898379999999918
11
145.7032480000000021
21
-131.9422189999999944
0
LINE
8
BLACK
6
CONTINUOUS
10
145.7032480000000021
20
-131.9422189999999944
11
145.6080100000000073
21
-131.7517420000000072
0
LINE
8
BLACK
6
CONTINUOUS
10
145.6080100000000073
20
-131.7517420000000072
11
145.4175339999999892
21
-131.656503999999984
0
LINE
8
BLACK
6
CONTINUOUS
10
145.4175339999999892
20
-131.656503999999984
11
145.1318190000000072
21
-131.656503999999984
0
LINE
8
BLACK
6
CONTINUOUS
10
145.1318190000000072
20
-131.656503999999984
11
144.9413429999999892
21
-131.7517420000000072
0
LINE
8
BLACK
6
CONTINUOUS
10
144.9413429999999892
20
-131.7517420000000072
11
144.8461049999999943
21
-131.8469800000000021
0
LINE
8
BLACK
6
CONTINUOUS
10
146.9413429999999892
20
-132.9898379999999918
11
146.7508669999999995
21
-132.894599999999997
0
LINE
8
BLACK
6
CONTINUOUS
10
146.7508669999999995
20
-132.894599999999997
11
146.6556290000000047
21
-132.7993610000000047
0
LINE
8
BLACK
6
CONTINUOUS
10
146.6556290000000047
20
-132.7993610000000047
11
146.5603909999999814
21
-132.6088849999999866
0
LINE
8
BLACK
6
CONTINUOUS
10
146.5603909999999814
20
-132.6088849999999866
11
146.5603909999999814
21
-132.0374569999999892
0
LINE
8
BLACK
6
CONTINUOUS
10
146.5603909999999814
20
-132.0374569999999892
11
146.6556290000000047
21
-131.8469800000000021
0
LINE
8
BLACK
6
CONTINUOUS
10
146.6556290000000047
20
-131.8469800000000021
11
146.7508669999999995
21
-131.7517420000000072
0
LINE
8
BLACK
6
CONTINUOUS
10
146.7508669999999995
20
-131.7517420000000072
11
146.9413429999999892
21
-131.656503999999984
0
LINE
8
BLACK
6
CONTINUOUS
10
146.9413429999999892
20
-131.656503999999984
11
147.2270579999999995
21
-131.656503999999984
0
LINE
8
BLACK
6
CONTINUOUS
10
147.2270579999999995
20
-131.656503999999984
11
147.4175339999999892
21
-131.7517420000000072
0
LINE
8
BLACK
6
CONTINUOUS
10
147.4175339999999892
20
-131.7517420000000072
11
147.512771999999984
21
-131.8469800000000021
0
LINE
8
BLACK
6
CONTINUOUS
10
147.512771999999984
20
-131.8469800000000021
11
147.6080100000000073
21
-132.0374569999999892
0
LINE
8
BLACK
6
CONTINUOUS
10
147.6080100000000073
20
-132.0374569999999892
11
147.6080100000000073
21
-132.6088849999999866
0
LINE
8
BLACK
6
CONTINUOUS
10
147.6080100000000073
20
-132.6088849999999866
11
147.512771999999984
21
-132.7993610000000047
0
LINE
8
BLACK
6
CONTINUOUS
10
147.512771999999984
20
-132.7993610000000047
11
147.4175339999999892
21
-132.894599999999997
0
LINE
8
BLACK
6
CONTINUOUS
10
147.4175339999999892
20
-132.894599999999997
11
147.2270579999999995
21
-132.9898379999999918
0
LINE
8
BLACK
6
CONTINUOUS
10
147.2270579999999995
20
-132.9898379999999918
11
146.9413429999999892
21
-132.9898379999999918
0
LINE
8
BLACK
6
CONTINUOUS
10
148.7508669999999995
20
-132.9898379999999918
11
148.5603909999999814
21
-132.894599999999997
0
LINE
8
BLACK
6
CONTINUOUS
10
148.5603909999999814
20
-132.894599999999997
11
148.4651529999999866
21
-132.7041229999999814
0
LINE
8
BLACK
6
CONTINUOUS
10
148.4651529999999866
20
-132.7041229999999814
11
148.4651529999999866
21
-130.9898379999999918
0
LINE
8
BLACK
6
CONTINUOUS
10
150.274676999999997
20
-132.894599999999997
11
150.0842010000000073
21
-132.9898379999999918
0
LINE
8
BLACK
6
CONTINUOUS
10
150.0842010000000073
20
-132.9898379999999918
11
149.7032480000000021
21
-132.9898379999999918
0
LINE
8
BLACK
6
CONTINUOUS
10
149.7032480000000021
20
-132.9898379999999918
11
149.512771999999984
21
-132.894599999999997
0
LINE
8
BLACK
6
CONTINUOUS
10
149.512771999999984
20
-132.894599999999997
11
149.4175339999999892
21
-132.7041229999999814
0
LINE
8
BLACK
6
CONTINUOUS
10
149.4175339999999892
20
-132.7041229999999814
11
149.4175339999999892
21
-131.9422189999999944
0
LINE
8
BLACK
6
CONTINUOUS
10
149.4175339999999892
20
-131.9422189999999944
11
149.512771999999984
21
-131.7517420000000072
0
LINE
8
BLACK
6
CONTINUOUS
10
149.512771999999984
20
-131.7517420000000072
11
149.7032480000000021
21
-131.656503999999984
0
LINE
8
BLACK
6
CONTINUOUS
10
149.7032480000000021
20
-131.656503999999984
11
150.0842010000000073
21
-131.656503999999984
0
LINE
8
BLACK
6
CONTINUOUS
10
150.0842010000000073
20
-131.656503999999984
11
150.274676999999997
21
-131.7517420000000072
0
LINE
8
BLACK
6
CONTINUOUS
10
150.274676999999997
20
-131.7517420000000072
11
150.3699149999999918
21
-131.9422189999999944
0
LINE
8
BLACK
6
CONTINUOUS
10
150.3699149999999918
20
-131.9422189999999944
11
150.3699149999999918
21
-132.132694999999984
0
LINE
8
BLACK
6
CONTINUOUS
10
150.3699149999999918
20
-132.132694999999984
11
149.4175339999999892
21
-132.3231710000000021
0
LINE
8
BLACK
6
CONTINUOUS
10
151.1318200000000047
20
-132.894599999999997
11
151.3222959999999944
21
-132.9898379999999918
0
LINE
8
BLACK
6
CONTINUOUS
10
151.3222959999999944
20
-132.9898379999999918
11
151.7032480000000021
21
-132.9898379999999918
0
LINE
8
BLACK
6
CONTINUOUS
10
151.7032480000000021
20
-132.9898379999999918
11
151.8937249999999892
21
-132.894599999999997
0
LINE
8
BLACK
6
CONTINUOUS
10
151.8937249999999892
20
-132.894599999999997
11
151.988962999999984
21
-132.7041229999999814
0
LINE
8
BLACK
6
CONTINUOUS
10
151.988962999999984
20
-132.7041229999999814
11
151.988962999999984
21
-132.6088849999999866
0
LINE
8
BLACK
6
CONTINUOUS
10
151.988962999999984
20
-132.6088849999999866
11
151.8937249999999892
21
-132.4184089999999969
0
LINE
8
BLACK
6
CONTINUOUS
10
151.8937249999999892
20
-132.4184089999999969
11
151.7032480000000021
21
-132.3231710000000021
0
LINE
8
BLACK
6
CONTINUOUS
10
151.7032480000000021
20
-132.3231710000000021
11
151.4175339999999892
21
-132.3231710000000021
0
LINE
8
BLACK
6
CONTINUOUS
10
151.4175339999999892
20
-132.3231710000000021
11
151.2270579999999995
21
-132.2279330000000073
0
LINE
8
BLACK
6
CONTINUOUS
10
151.2270579999999995
20
-132.2279330000000073
11
151.1318200000000047
21
-132.0374569999999892
0
LINE
8
BLACK
6
CONTINUOUS
10
151.1318200000000047
20
-132.0374569999999892
11
151.1318200000000047
21
-131.9422189999999944
0
LINE
8
BLACK
6
CONTINUOUS
10
151.1318200000000047
20
-131.9422189999999944
11
151.2270579999999995
21
-131.7517420000000072
0
LINE
8
BLACK
6
CONTINUOUS
10
151.2270579999999995
20
-131.7517420000000072
11
151.4175339999999892
21
-131.656503999999984
0
LINE
8
BLACK
6
CONTINUOUS
10
151.4175339999999892
20
-131.656503999999984
11
151.7032480000000021
21
-131.656503999999984
0
LINE
8
BLACK
6
CONTINUOUS
10
151.7032480000000021
20
-131.656503999999984
11
151.8937249999999892
21
-131.7517420000000072
0
LINE
8
BLACK
6
CONTINUOUS
10
152.6556300000000022
20
-133.7517420000000072
11
152.750867999999997
21
-133.656503999999984
0
LINE
8
BLACK
6
CONTINUOUS
10
152.750867999999997
20
-133.656503999999984
11
152.9413439999999866
21
-133.3707899999999995
0
LINE
8
BLACK
6
CONTINUOUS
10
152.9413439999999866
20
-133.3707899999999995
11
153.0365819999999815
21
-133.1803139999999814
0
LINE
8
BLACK
6
CONTINUOUS
10
153.0365819999999815
20
-133.1803139999999814
11
153.1318200000000047
21
-132.894599999999997
0
LINE
8
BLACK
6
CONTINUOUS
10
153.1318200000000047
20
-132.894599999999997
11
153.2270579999999995
21
-132.4184089999999969
0
LINE
8
BLACK
6
CONTINUOUS
10
153.2270579999999995
20
-132.4184089999999969
11
153.2270579999999995
21
-132.0374569999999892
0
LINE
8
BLACK
6
CONTINUOUS
10
153.2270579999999995
20
-132.0374569999999892
11
153.1318200000000047
21
-131.5612659999999892
0
LINE
8
BLACK
6
CONTINUOUS
10
153.1318200000000047
20
-131.5612659999999892
11
153.0365819999999815
21
-131.2755520000000047
0
LINE
8
BLACK
6
CONTINUOUS
10
153.0365819999999815
20
-131.2755520000000047
11
152.9413439999999866
21
-131.0850759999999866
0
LINE
8
BLACK
6
CONTINUOUS
10
152.9413439999999866
20
-131.0850759999999866
11
152.750867999999997
21
-130.7993610000000047
0
LINE
8
BLACK
6
CONTINUOUS
10
152.750867999999997
20
-130.7993610000000047
11
152.6556300000000022
21
-130.7041229999999814
0
LINE
8
BLACK
6
CONTINUOUS
10
156.2746779999999944
20
-133.7517420000000072
11
156.1794390000000021
21
-133.656503999999984
0
LINE
8
BLACK
6
CONTINUOUS
10
156.1794390000000021
20
-133.656503999999984
11
155.988962999999984
21
-133.3707899999999995
0
LINE
8
BLACK
6
CONTINUOUS
10
155.988962999999984
20
-133.3707899999999995
11
155.8937249999999892
21
-133.1803139999999814
0
LINE
8
BLACK
6
CONTINUOUS
10
155.8937249999999892
20
-133.1803139999999814
11
155.7984869999999944
21
-132.894599999999997
0
LINE
8
BLACK
6
CONTINUOUS
10
155.7984869999999944
20
-132.894599999999997
11
155.7032489999999996
21
-132.4184089999999969
0
LINE
8
BLACK
6
CONTINUOUS
10
155.7032489999999996
20
-132.4184089999999969
11
155.7032489999999996
21
-132.0374569999999892
0
LINE
8
BLACK
6
CONTINUOUS
10
155.7032489999999996
20
-132.0374569999999892
11
155.7984869999999944
21
-131.5612659999999892
0
LINE
8
BLACK
6
CONTINUOUS
10
155.7984869999999944
20
-131.5612659999999892
11
155.8937249999999892
21
-131.2755520000000047
0
LINE
8
BLACK
6
CONTINUOUS
10
155.8937249999999892
20
-131.2755520000000047
11
155.988962999999984
21
-131.0850759999999866
0
LINE
8
BLACK
6
CONTINUOUS
10
155.988962999999984
20
-131.0850759999999866
11
156.1794390000000021
21
-130.7993610000000047
0
LINE
8
BLACK
6
CONTINUOUS
10
156.1794390000000021
20
-130.7993610000000047
11
156.2746779999999944
21
-130.7041229999999814
0
LINE
8
BLACK
6
CONTINUOUS
10
157.0365819999999815
20
-131.656503999999984
11
157.0365819999999815
21
-132.9898379999999918
0
LINE
8
BLACK
6
CONTINUOUS
10
157.0365819999999815
20
-131.8469800000000021
11
157.1318200000000047
21
-131.7517420000000072
0
LINE
8
BLACK
6
CONTINUOUS
10
157.1318200000000047
20
-131.7517420000000072
11
157.3222959999999944
21
-131.656503999999984
0
LINE
8
BLACK
6
CONTINUOUS
10
157.3222959999999944
20
-131.656503999999984
11
157.6080110000000047
21
-131.656503999999984
0
LINE
8
BLACK
6
CONTINUOUS
10
157.6080110000000047
20
-131.656503999999984
11
157.7984869999999944
21
-131.7517420000000072
0
LINE
8
BLACK
6
CONTINUOUS
10
157.7984869999999944
20
-131.7517420000000072
11
157.8937249999999892
21
-131.9422189999999944
0
LINE
8
BLACK
6
CONTINUOUS
10
157.8937249999999892
20
-131.9422189999999944
11
157.8937249999999892
21
-132.9898379999999918
0
LINE
8
BLACK
6
CONTINUOUS
10
159.1318200000000047
20
-132.9898379999999918
11
158.9413439999999866
21
-132.894599999999997
0
LINE
8
BLACK
6
CONTINUOUS
10
158.9413439999999866
20
-132.894599999999997
11
158.8461059999999918
21
-132.7993610000000047
0
LINE
8
BLACK
6
CONTINUOUS
10
158.8461059999999918
20
-132.7993610000000047
11
158.750867999999997
21
-132.6088849999999866
0
LINE
8
BLACK
6
CONTINUOUS
10
158.750867999999997
20
-132.6088849999999866
11
158.750867999999997
21
-132.0374569999999892
0
LINE
8
BLACK
6
CONTINUOUS
10
158.750867999999997
20
-132.0374569999999892
11
158.8461059999999918
21
-131.8469800000000021
0
LINE
8
BLACK
6
CONTINUOUS
10
158.8461059999999918
20
-131.8469800000000021
11
158.9413439999999866
21
-131.7517420000000072
0
LINE
8
BLACK
6
CONTINUOUS
10
158.9413439999999866
20
-131.7517420000000072
11
159.1318200000000047
21
-131.656503999999984
0
LINE
8
BLACK
6
CONTINUOUS
10
159.1318200000000047
20
-131.656503999999984
11
159.4175349999999867
21
-131.656503999999984
0
LINE
8
BLACK
6
CONTINUOUS
10
159.4175349999999867
20
-131.656503999999984
11
159.6080110000000047
21
-131.7517420000000072
0
LINE
8
BLACK
6
CONTINUOUS
10
159.6080110000000047
20
-131.7517420000000072
11
159.7032489999999996
21
-131.8469800000000021
0
LINE
8
BLACK
6
CONTINUOUS
10
159.7032489999999996
20
-131.8469800000000021
11
159.7984869999999944
21
-132.0374569999999892
0
LINE
8
BLACK
6
CONTINUOUS
10
159.7984869999999944
20
-132.0374569999999892
11
159.7984869999999944
21
-132.6088849999999866
0
LINE
8
BLACK
6
CONTINUOUS
10
159.7984869999999944
20
-132.6088849999999866
11
159.7032489999999996
21
-132.7993610000000047
0
LINE
8
BLACK
6
CONTINUOUS
10
159.7032489999999996
20
-132.7993610000000047
11
159.6080110000000047
21
-132.894599999999997
0
LINE
8
BLACK
6
CONTINUOUS
10
159.6080110000000047
20
-132.894599999999997
11
159.4175349999999867
21
-132.9898379999999918
0
LINE
8
BLACK
6
CONTINUOUS
10
159.4175349999999867
20
-132.9898379999999918
11
159.1318200000000047
21
-132.9898379999999918
0
LINE
8
BLACK
6
CONTINUOUS
10
160.3699159999999893
20
-131.656503999999984
11
161.1318200000000047
21
-131.656503999999984
0
LINE
8
BLACK
6
CONTINUOUS
10
160.6556300000000022
20
-130.9898379999999918
11
160.6556300000000022
21
-132.7041229999999814
0
LINE
8
BLACK
6
CONTINUOUS
10
160.6556300000000022
20
-132.7041229999999814
11
160.750867999999997
21
-132.894599999999997
0
LINE
8
BLACK
6
CONTINUOUS
10
160.750867999999997
20
-132.894599999999997
11
160.9413439999999866
21
-132.9898379999999918
0
LINE
8
BLACK
6
CONTINUOUS
10
160.9413439999999866
20
-132.9898379999999918
11
161.1318200000000047
21
-132.9898379999999918
0
LINE
8
BLACK
6
CONTINUOUS
10
163.3222969999999918
20
-131.656503999999984
11
163.3222969999999918
21
-133.656503999999984
0
LINE
8
BLACK
6
CONTINUOUS
10
163.3222969999999918
20
-131.7517420000000072
11
163.5127729999999815
21
-131.656503999999984
0
LINE
8
BLACK
6
CONTINUOUS
10
163.5127729999999815
20
-131.656503999999984
11
163.8937259999999867
21
-131.656503999999984
0
LINE
8
BLACK
6
CONTINUOUS
10
163.8937259999999867
20
-131.656503999999984
11
164.0842020000000048
21
-131.7517420000000072
0
LINE
8
BLACK
6
CONTINUOUS
10
164.0842020000000048
20
-131.7517420000000072
11
164.1794399999999996
21
-131.8469800000000021
0
LINE
8
BLACK
6
CONTINUOUS
10
164.1794399999999996
20
-131.8469800000000021
11
164.2746779999999944
21
-132.0374569999999892
0
LINE
8
BLACK
6
CONTINUOUS
10
164.2746779999999944
20
-132.0374569999999892
11
164.2746779999999944
21
-132.6088849999999866
0
LINE
8
BLACK
6
CONTINUOUS
10
164.2746779999999944
20
-132.6088849999999866
11
164.1794399999999996
21
-132.7993610000000047
0
LINE
8
BLACK
6
CONTINUOUS
10
164.1794399999999996
20
-132.7993610000000047
11
164.0842020000000048
21
-132.894599999999997
0
LINE
8
BLACK
6
CONTINUOUS
10
164.0842020000000048
20
-132.894599999999997
11
163.8937259999999867
21
-132.9898379999999918
0
LINE
8
BLACK
6
CONTINUOUS
10
163.8937259999999867
20
-132.9898379999999918
11
163.5127729999999815
21
-132.9898379999999918
0
LINE
8
BLACK
6
CONTINUOUS
10
163.5127729999999815
20
-132.9898379999999918
11
163.3222969999999918
21
-132.894599999999997
0
LINE
8
BLACK
6
CONTINUOUS
10
165.4175349999999867
20
-132.9898379999999918
11
165.227058999999997
21
-132.894599999999997
0
LINE
8
BLACK
6
CONTINUOUS
10
165.227058999999997
20
-132.894599999999997
11
165.1318210000000022
21
-132.7041229999999814
0
LINE
8
BLACK
6
CONTINUOUS
10
165.1318210000000022
20
-132.7041229999999814
11
165.1318210000000022
21
-130.9898379999999918
0
LINE
8
BLACK
6
CONTINUOUS
10
167.0365829999999789
20
-132.9898379999999918
11
167.0365829999999789
21
-131.9422189999999944
0
LINE
8
BLACK
6
CONTINUOUS
10
167.0365829999999789
20
-131.9422189999999944
11
166.9413449999999841
21
-131.7517420000000072
0
LINE
8
BLACK
6
CONTINUOUS
10
166.9413449999999841
20
-131.7517420000000072
11
166.7508689999999945
21
-131.656503999999984
0
LINE
8
BLACK
6
CONTINUOUS
10
166.7508689999999945
20
-131.656503999999984
11
166.3699159999999893
21
-131.656503999999984
0
LINE
8
BLACK
6
CONTINUOUS
10
166.3699159999999893
20
-131.656503999999984
11
166.1794399999999996
21
-131.7517420000000072
0
LINE
8
BLACK
6
CONTINUOUS
10
167.0365829999999789
20
-132.894599999999997
11
166.8461069999999893
21
-132.9898379999999918
0
LINE
8
BLACK
6
CONTINUOUS
10
166.8461069999999893
20
-132.9898379999999918
11
166.3699159999999893
21
-132.9898379999999918
0
LINE
8
BLACK
6
CONTINUOUS
10
166.3699159999999893
20
-132.9898379999999918
11
166.1794399999999996
21
-132.894599999999997
0
LINE
8
BLACK
6
CONTINUOUS
10
166.1794399999999996
20
-132.894599999999997
11
166.0842020000000048
21
-132.7041229999999814
0
LINE
8
BLACK
6
CONTINUOUS
10
166.0842020000000048
20
-132.7041229999999814
11
166.0842020000000048
21
-132.5136469999999917
0
LINE
8
BLACK
6
CONTINUOUS
10
166.0842020000000048
20
-132.5136469999999917
11
166.1794399999999996
21
-132.3231710000000021
0
LINE
8
BLACK
6
CONTINUOUS
10
166.1794399999999996
20
-132.3231710000000021
11
166.3699159999999893
21
-132.2279330000000073
0
LINE
8
BLACK
6
CONTINUOUS
10
166.3699159999999893
20
-132.2279330000000073
11
166.8461069999999893
21
-132.2279330000000073
0
LINE
8
BLACK
6
CONTINUOUS
10
166.8461069999999893
20
-132.2279330000000073
11
167.0365829999999789
21
-132.132694999999984
0
LINE
8
BLACK
6
CONTINUOUS
10
167.703249999999997
20
-131.656503999999984
11
168.4651539999999841
21
-131.656503999999984
0
LINE
8
BLACK
6
CONTINUOUS
10
167.9889639999999815
20
-130.9898379999999918
11
167.9889639999999815
21
-132.7041229999999814
0
LINE
8
BLACK
6
CONTINUOUS
10
167.9889639999999815
20
-132.7041229999999814
11
168.0842020000000048
21
-132.894599999999997
0
LINE
8
BLACK
6
CONTINUOUS
10
168.0842020000000048
20
-132.894599999999997
11
168.2746779999999944
21
-132.9898379999999918
0
LINE
8
BLACK
6
CONTINUOUS
10
168.2746779999999944
20
-132.9898379999999918
11
168.4651539999999841
21
-132.9898379999999918
0
LINE
8
BLACK
6
CONTINUOUS
10
169.8937259999999867
20
-132.894599999999997
11
169.703249999999997
21
-132.9898379999999918
0
LINE
8
BLACK
6
CONTINUOUS
10
169.703249999999997
20
-132.9898379999999918
11
169.3222969999999918
21
-132.9898379999999918
0
LINE
8
BLACK
6
CONTINUOUS
10
169.3222969999999918
20
-132.9898379999999918
11
169.1318210000000022
21
-132.894599999999997
0
LINE
8
BLACK
6
CONTINUOUS
10
169.1318210000000022
20
-132.894599999999997
11
169.0365829999999789
21
-132.7041229999999814
0
LINE
8
BLACK
6
CONTINUOUS
10
169.0365829999999789
20
-132.7041229999999814
11
169.0365829999999789
21
-131.9422189999999944
0
LINE
8
BLACK
6
CONTINUOUS
10
169.0365829999999789
20
-131.9422189999999944
11
169.1318210000000022
21
-131.7517420000000072
0
LINE
8
BLACK
6
CONTINUOUS
10
169.1318210000000022
20
-131.7517420000000072
11
169.3222969999999918
21
-131.656503999999984
0
LINE
8
BLACK
6
CONTINUOUS
10
169.3222969999999918
20
-131.656503999999984
11
169.703249999999997
21
-131.656503999999984
0
LINE
8
BLACK
6
CONTINUOUS
10
169.703249999999997
20
-131.656503999999984
11
169.8937259999999867
21
-131.7517420000000072
0
LINE
8
BLACK
6
CONTINUOUS
10
169.8937259999999867
20
-131.7517420000000072
11
169.9889639999999815
21
-131.9422189999999944
0
LINE
8
BLACK
6
CONTINUOUS
10
169.9889639999999815
20
-131.9422189999999944
11
169.9889639999999815
21
-132.132694999999984
0
LINE
8
BLACK
6
CONTINUOUS
10
169.9889639999999815
20
-132.132694999999984
11
169.0365829999999789
21
-132.3231710000000021
0
LINE
8
BLACK
6
CONTINUOUS
10
171.703249999999997
20
-132.9898379999999918
11
171.703249999999997
21
-130.9898379999999918
0
LINE
8
BLACK
6
CONTINUOUS
10
171.703249999999997
20
-132.894599999999997
11
171.512773999999979
21
-132.9898379999999918
0
LINE
8
BLACK
6
CONTINUOUS
10
171.512773999999979
20
-132.9898379999999918
11
171.1318210000000022
21
-132.9898379999999918
0
LINE
8
BLACK
6
CONTINUOUS
10
171.1318210000000022
20
-132.9898379999999918
11
170.9413449999999841
21
-132.894599999999997
0
LINE
8
BLACK
6
CONTINUOUS
10
170.9413449999999841
20
-132.894599999999997
11
170.8461069999999893
21
-132.7993610000000047
0
LINE
8
BLACK
6
CONTINUOUS
10
170.8461069999999893
20
-132.7993610000000047
11
170.7508689999999945
21
-132.6088849999999866
0
LINE
8
BLACK
6
CONTINUOUS
10
170.7508689999999945
20
-132.6088849999999866
11
170.7508689999999945
21
-132.0374569999999892
0
LINE
8
BLACK
6
CONTINUOUS
10
170.7508689999999945
20
-132.0374569999999892
11
170.8461069999999893
21
-131.8469800000000021
0
LINE
8
BLACK
6
CONTINUOUS
10
170.8461069999999893
20
-131.8469800000000021
11
170.9413449999999841
21
-131.7517420000000072
0
LINE
8
BLACK
6
CONTINUOUS
10
170.9413449999999841
20
-131.7517420000000072
11
171.1318210000000022
21
-131.656503999999984
0
LINE
8
BLACK
6
CONTINUOUS
10
171.1318210000000022
20
-131.656503999999984
11
171.512773999999979
21
-131.656503999999984
0
LINE
8
BLACK
6
CONTINUOUS
10
171.512773999999979
20
-131.656503999999984
11
171.703249999999997
21
-131.7517420000000072
0
LINE
8
BLACK
6
CONTINUOUS
10
172.4651549999999816
20
-133.7517420000000072
11
172.5603930000000048
21
-133.656503999999984
0
LINE
8
BLACK
6
CONTINUOUS
10
172.5603930000000048
20
-133.656503999999984
11
172.7508689999999945
21
-133.3707899999999995
0
LINE
8
BLACK
6
CONTINUOUS
10
172.7508689999999945
20
-133.3707899999999995
11
172.8461069999999893
21
-133.1803139999999814
0
LINE
8
BLACK
6
CONTINUOUS
10
172.8461069999999893
20
-133.1803139999999814
11
172.9413449999999841
21
-132.894599999999997
0
LINE
8
BLACK
6
CONTINUOUS
10
172.9413449999999841
20
-132.894599999999997
11
173.0365829999999789
21
-132.4184089999999969
0
LINE
8
BLACK
6
CONTINUOUS
10
173.0365829999999789
20
-132.4184089999999969
11
173.0365829999999789
21
-132.0374569999999892
0
LINE
8
BLACK
6
CONTINUOUS
10
173.0365829999999789
20
-132.0374569999999892
11
172.9413449999999841
21
-131.5612659999999892
0
LINE
8
BLACK
6
CONTINUOUS
10
172.9413449999999841
20
-131.5612659999999892
11
172.8461069999999893
21
-131.2755520000000047
0
LINE
8
BLACK
6
CONTINUOUS
10
172.8461069999999893
20
-131.2755520000000047
11
172.7508689999999945
21
-131.0850759999999866
0
LINE
8
BLACK
6
CONTINUOUS
10
172.7508689999999945
20
-131.0850759999999866
11
172.5603930000000048
21
-130.7993610000000047
0
LINE
8
BLACK
6
CONTINUOUS
10
172.5603930000000048
20
-130.7993610000000047
11
172.4651549999999816
21
-130.7041229999999814
  0
ENDSEC
  0
EOF
