  0
SECTION
  2
HEADER
  9
$ANGBASE
  50
0.0
  9
$ANGDIR
  70
1
  9
$MEASUREMENT
  70
1
  0
ENDSEC
  0
SECTION
  2
TABLES
  0
TABLE
  2
LTYPE
  70
4
  0
LTYPE
  5
40F
  2
CONTINUOUS
  70
0
  3
Solid line
  72
65
  73
0
  40
0.0
  0
LTYPE
  5
410
  2
DASHDOT
 70
0
  3
Dash Dot ____ _ ____ _
 72
65
 73
4
 40
2.0
 49
1.25
 49
-0.25
 49
0.25
 49
-0.25
  0
LTYPE
  5
411
  2
DASHED
 70
0
  3
Dashed __ __ __ __ __
 72
65
 73
2
 40
0.75
 49
0.5
 49
-0.25
  0
LTYPE
  5
43B
  2
DOTTED
 70
0
  3
Dotted .  .  .  .
 72
65
 73
2
 40
0.2
 49
0.0
 49
-0.2
  0
ENDTAB
  0
TABLE
  2
STYLE
  70
4
  0
STYLE
  2
KICAD
  70
0
  40
0
  41
1
  42
1
  50
0
  71
0
  3
isocp.shx
  0
STYLE
  2
KICADB
  70
0
  40
0
  41
1
  42
1
  50
0
  71
0
  3
isocp.shx
  0
STYLE
  2
KICADI
  70
0
  40
0
  41
1
  42
1
  50
15
  71
0
  3
isocp.shx
  0
STYLE
  2
KICADBI
  70
0
  40
0
  41
1
  42
1
  50
15
  71
0
  3
isocp.shx
  0
ENDTAB
  0
TABLE
  2
LAYER
  70
1
  0
LAYER
  2
BLACK
  70
0
  62
7
  6
CONTINUOUS
  0
ENDTAB
  0
ENDSEC
  0
SECTION
  2
ENTITIES
0
LINE
8
BLACK
6
CONTINUOUS
10
173.6995670000000018
20
-72.9269029999999958
11
173.7130970000000048
21
-72.9404329999999987
0
LINE
8
BLACK
6
CONTINUOUS
10
173.7130970000000048
20
-72.9404329999999987
11
173.7150000000000034
21
-72.9500000000000028
0
LINE
8
BLACK
6
CONTINUOUS
10
173.7150000000000034
20
-72.9500000000000028
11
173.7150000000000034
21
-122.4499999999999886
0
LINE
8
BLACK
6
CONTINUOUS
10
173.7150000000000034
20
-122.4499999999999886
11
173.7130970000000048
21
-122.4595669999999927
0
LINE
8
BLACK
6
CONTINUOUS
10
173.7130970000000048
20
-122.4595669999999927
11
173.6995670000000018
21
-122.4730969999999957
0
LINE
8
BLACK
6
CONTINUOUS
10
173.6995670000000018
20
-122.4730969999999957
11
173.6899999999999977
21
-122.4749999999999943
0
LINE
8
BLACK
6
CONTINUOUS
10
173.6899999999999977
20
-122.4749999999999943
11
104.9299999999999926
21
-122.4749999999999943
0
LINE
8
BLACK
6
CONTINUOUS
10
104.9299999999999926
20
-122.4749999999999943
11
104.9204329999999885
21
-122.4730969999999957
0
LINE
8
BLACK
6
CONTINUOUS
10
104.9204329999999885
20
-122.4730969999999957
11
104.9069029999999998
21
-122.4595669999999927
0
LINE
8
BLACK
6
CONTINUOUS
10
104.9069029999999998
20
-122.4595669999999927
11
104.9050000000000011
21
-122.4499999999999886
0
LINE
8
BLACK
6
CONTINUOUS
10
104.9050000000000011
20
-122.4499999999999886
11
104.9050000000000011
21
-72.9500000000000028
0
LINE
8
BLACK
6
CONTINUOUS
10
104.9050000000000011
20
-72.9500000000000028
11
104.9069029999999998
21
-72.9404329999999987
0
LINE
8
BLACK
6
CONTINUOUS
10
104.9069029999999998
20
-72.9404329999999987
11
104.9204329999999885
21
-72.9269029999999958
0
LINE
8
BLACK
6
CONTINUOUS
10
104.9204329999999885
20
-72.9269029999999958
11
104.9299999999999926
21
-72.9249999999999972
0
LINE
8
BLACK
6
CONTINUOUS
10
104.9299999999999926
20
-72.9249999999999972
11
173.6899999999999977
21
-72.9249999999999972
0
LINE
8
BLACK
6
CONTINUOUS
10
173.6899999999999977
20
-72.9249999999999972
11
173.6995670000000018
21
-72.9269029999999958
0
LINE
8
BLACK
6
CONTINUOUS
10
104.9549999999999983
20
-72.9749999999999943
11
104.9549999999999983
21
-122.4249999999999972
0
LINE
8
BLACK
6
CONTINUOUS
10
104.9549999999999983
20
-122.4249999999999972
11
173.664999999999992
21
-122.4249999999999972
0
LINE
8
BLACK
6
CONTINUOUS
10
173.664999999999992
20
-122.4249999999999972
11
173.664999999999992
21
-72.9749999999999943
0
LINE
8
BLACK
6
CONTINUOUS
10
173.664999999999992
20
-72.9749999999999943
11
104.9549999999999983
21
-72.9749999999999943
0
CIRCLE
8
BLACK
10
122.2999999999999972
20
-102.5099999999999909
40
0.4
0
CIRCLE
8
BLACK
10
122.2999999999999972
20
-94.8900000000000006
40
0.4
0
CIRCLE
8
BLACK
10
138.1099999999999852
20
-107.5999999999999943
40
0.4
0
CIRCLE
8
BLACK
10
130.4899999999999807
20
-107.5999999999999943
40
0.4
0
CIRCLE
8
BLACK
10
126.
20
-120.5
40
1.5
0
CIRCLE
8
BLACK
10
134.4000000000000057
20
-120.5
40
1.5
0
CIRCLE
8
BLACK
10
134.4000000000000057
20
-113.1999999999999886
40
0.8999999999999999
0
CIRCLE
8
BLACK
10
130.1999999999999886
20
-113.1999999999999886
40
0.8999999999999999
0
CIRCLE
8
BLACK
10
126.
20
-113.1999999999999886
40
0.8999999999999999
0
CIRCLE
8
BLACK
10
165.1274999999999977
20
-89.8624999999999972
40
0.9049999999999999
0
CIRCLE
8
BLACK
10
165.1274999999999977
20
-84.4024999999999892
40
0.9049999999999999
0
CIRCLE
8
BLACK
10
165.1274999999999977
20
-78.9424999999999955
40
0.9049999999999999
0
CIRCLE
8
BLACK
10
145.7199999999999989
20
-101.2800000000000011
40
0.635
0
CIRCLE
8
BLACK
10
145.7199999999999989
20
-98.7399999999999949
40
0.635
0
CIRCLE
8
BLACK
10
145.7199999999999989
20
-96.1999999999999886
40
0.635
0
CIRCLE
8
BLACK
10
145.7199999999999989
20
-93.6599999999999966
40
0.635
0
CIRCLE
8
BLACK
10
145.7199999999999989
20
-88.5799999999999983
40
0.635
0
CIRCLE
8
BLACK
10
145.7199999999999989
20
-91.1199999999999903
40
0.635
0
CIRCLE
8
BLACK
10
130.4799999999999898
20
-83.5
40
0.635
0
CIRCLE
8
BLACK
10
145.7199999999999989
20
-83.5
40
0.635
0
CIRCLE
8
BLACK
10
130.4799999999999898
20
-86.039999999999992
40
0.635
0
CIRCLE
8
BLACK
10
130.4799999999999898
20
-88.5799999999999983
40
0.635
0
CIRCLE
8
BLACK
10
130.4799999999999898
20
-91.1199999999999903
40
0.635
0
CIRCLE
8
BLACK
10
130.4799999999999898
20
-93.6599999999999966
40
0.635
0
CIRCLE
8
BLACK
10
130.4799999999999898
20
-96.1999999999999886
40
0.635
0
CIRCLE
8
BLACK
10
130.4799999999999898
20
-98.7399999999999949
40
0.635
0
CIRCLE
8
BLACK
10
130.4799999999999898
20
-101.2800000000000011
40
0.635
0
CIRCLE
8
BLACK
10
145.7199999999999989
20
-86.039999999999992
40
0.635
0
CIRCLE
8
BLACK
10
154.2999999999999829
20
-81.2676769999999919
40
0.5
0
CIRCLE
8
BLACK
10
154.2999999999999829
20
-76.2676769999999919
40
0.5
0
CIRCLE
8
BLACK
10
113.532322999999991
20
-113.6999999999999886
40
0.5
0
CIRCLE
8
BLACK
10
118.532322999999991
20
-113.6999999999999886
40
0.5
0
CIRCLE
8
BLACK
10
154.5499999999999829
20
-106.5499999999999972
40
0.5499999999999999
0
CIRCLE
8
BLACK
10
154.5499999999999829
20
-96.3900000000000006
40
0.5499999999999999
0
CIRCLE
8
BLACK
10
150.6899999999999977
20
-90.2999999999999972
40
0.4
0
CIRCLE
8
BLACK
10
158.3100000000000023
20
-90.2999999999999972
40
0.4
0
CIRCLE
8
BLACK
10
161.5
20
-120.5
40
1.5
0
CIRCLE
8
BLACK
10
161.5
20
-113.1999999999999886
40
0.8999999999999999
0
CIRCLE
8
BLACK
10
161.5
20
-107.6999999999999886
40
0.8999999999999999
0
CIRCLE
8
BLACK
10
115.9200000000000017
20
-107.1999999999999886
40
0.5499999999999999
0
CIRCLE
8
BLACK
10
126.0799999999999983
20
-107.1999999999999886
40
0.5499999999999999
0
CIRCLE
8
BLACK
10
169.6200000000000045
20
-118.7999999999999972
40
1.5999999999999999
0
CIRCLE
8
BLACK
10
143.6157499999999914
20
-120.3870999999999896
40
1.5
0
CIRCLE
8
BLACK
10
152.015749999999997
20
-120.3870999999999896
40
1.5
0
CIRCLE
8
BLACK
10
152.015749999999997
20
-113.0870999999999924
40
0.8999999999999999
0
CIRCLE
8
BLACK
10
147.81574999999998
20
-113.0870999999999924
40
0.8999999999999999
0
CIRCLE
8
BLACK
10
143.6157499999999914
20
-113.0870999999999924
40
0.8999999999999999
0
CIRCLE
8
BLACK
10
126.1999999999999886
20
-98.8100000000000023
40
0.4
0
CIRCLE
8
BLACK
10
126.1999999999999886
20
-91.1899999999999977
40
0.4
0
CIRCLE
8
BLACK
10
158.9000000000000057
20
-85.8999999999999915
40
0.4
0
CIRCLE
8
BLACK
10
151.2800000000000011
20
-85.8999999999999915
40
0.4
0
CIRCLE
8
BLACK
10
108.5300000000000011
20
-118.7999999999999972
40
1.5999999999999999
0
CIRCLE
8
BLACK
10
107.2999999999999972
20
-107.8999999999999915
40
1.5999999999999999
0
CIRCLE
8
BLACK
10
107.2999999999999972
20
-82.0999999999999943
40
1.5999999999999999
0
CIRCLE
8
BLACK
10
111.5
20
-103.3999999999999915
40
0.8999999999999999
0
CIRCLE
8
BLACK
10
111.5
20
-99.1999999999999886
40
0.8999999999999999
0
CIRCLE
8
BLACK
10
111.5
20
-95.
40
0.8999999999999999
0
CIRCLE
8
BLACK
10
111.5
20
-90.7999999999999972
40
0.8999999999999999
0
CIRCLE
8
BLACK
10
111.5
20
-86.5999999999999943
40
0.8999999999999999
0
CIRCLE
8
BLACK
10
117.
20
-103.3999999999999915
40
0.8999999999999999
0
CIRCLE
8
BLACK
10
117.
20
-99.1999999999999886
40
0.8999999999999999
0
CIRCLE
8
BLACK
10
117.
20
-95.
40
0.8999999999999999
0
CIRCLE
8
BLACK
10
117.
20
-90.7999999999999972
40
0.8999999999999999
0
CIRCLE
8
BLACK
10
117.
20
-86.5999999999999943
40
0.8999999999999999
0
CIRCLE
8
BLACK
10
143.5900000000000034
20
-107.2999999999999972
40
0.4
0
CIRCLE
8
BLACK
10
151.2099999999999795
20
-107.2999999999999972
40
0.4
0
CIRCLE
8
BLACK
10
114.9699999999999989
20
-77.6199999999999903
40
1.5999999999999999
0
CIRCLE
8
WHITE
10
122.2999999999999972
20
-102.5099999999999909
40
0.4
0
CIRCLE
8
WHITE
10
122.2999999999999972
20
-94.8900000000000006
40
0.4
0
CIRCLE
8
WHITE
10
138.1099999999999852
20
-107.5999999999999943
40
0.4
0
CIRCLE
8
WHITE
10
130.4899999999999807
20
-107.5999999999999943
40
0.4
0
CIRCLE
8
WHITE
10
126.
20
-120.5
40
1.4999989999999999
0
CIRCLE
8
WHITE
10
134.4000000000000057
20
-120.5
40
1.4999989999999999
0
CIRCLE
8
WHITE
10
134.4000000000000057
20
-113.1999999999999886
40
0.8999999999999999
0
CIRCLE
8
WHITE
10
130.1999999999999886
20
-113.1999999999999886
40
0.8999999999999999
0
CIRCLE
8
WHITE
10
126.
20
-113.1999999999999886
40
0.8999999999999999
0
CIRCLE
8
WHITE
10
165.1274999999999977
20
-89.8624999999999972
40
0.9049999999999999
0
CIRCLE
8
WHITE
10
165.1274999999999977
20
-84.4024999999999892
40
0.9049999999999999
0
CIRCLE
8
WHITE
10
165.1274999999999977
20
-78.9424999999999955
40
0.9049999999999999
0
CIRCLE
8
WHITE
10
145.7199999999999989
20
-101.2800000000000011
40
0.635
0
CIRCLE
8
WHITE
10
145.7199999999999989
20
-98.7399999999999949
40
0.635
0
CIRCLE
8
WHITE
10
145.7199999999999989
20
-96.1999999999999886
40
0.635
0
CIRCLE
8
WHITE
10
145.7199999999999989
20
-93.6599999999999966
40
0.635
0
CIRCLE
8
WHITE
10
145.7199999999999989
20
-88.5799999999999983
40
0.635
0
CIRCLE
8
WHITE
10
145.7199999999999989
20
-91.1199999999999903
40
0.635
0
CIRCLE
8
WHITE
10
130.4799999999999898
20
-83.5
40
0.635
0
CIRCLE
8
WHITE
10
145.7199999999999989
20
-83.5
40
0.635
0
CIRCLE
8
WHITE
10
130.4799999999999898
20
-86.039999999999992
40
0.635
0
CIRCLE
8
WHITE
10
130.4799999999999898
20
-88.5799999999999983
40
0.635
0
CIRCLE
8
WHITE
10
130.4799999999999898
20
-91.1199999999999903
40
0.635
0
CIRCLE
8
WHITE
10
130.4799999999999898
20
-93.6599999999999966
40
0.635
0
CIRCLE
8
WHITE
10
130.4799999999999898
20
-96.1999999999999886
40
0.635
0
CIRCLE
8
WHITE
10
130.4799999999999898
20
-98.7399999999999949
40
0.635
0
CIRCLE
8
WHITE
10
130.4799999999999898
20
-101.2800000000000011
40
0.635
0
CIRCLE
8
WHITE
10
145.7199999999999989
20
-86.039999999999992
40
0.635
0
CIRCLE
8
WHITE
10
154.2999999999999829
20
-81.2676769999999919
40
0.5
0
CIRCLE
8
WHITE
10
154.2999999999999829
20
-76.2676769999999919
40
0.5
0
CIRCLE
8
WHITE
10
113.532322999999991
20
-113.6999999999999886
40
0.5
0
CIRCLE
8
WHITE
10
118.532322999999991
20
-113.6999999999999886
40
0.5
0
CIRCLE
8
WHITE
10
154.5499999999999829
20
-106.5499999999999972
40
0.5499999999999999
0
CIRCLE
8
WHITE
10
154.5499999999999829
20
-96.3900000000000006
40
0.5499999999999999
0
CIRCLE
8
WHITE
10
150.6899999999999977
20
-90.2999999999999972
40
0.4
0
CIRCLE
8
WHITE
10
158.3100000000000023
20
-90.2999999999999972
40
0.4
0
CIRCLE
8
WHITE
10
161.5
20
-120.5
40
1.4999989999999999
0
CIRCLE
8
WHITE
10
161.5
20
-113.1999999999999886
40
0.8999999999999999
0
CIRCLE
8
WHITE
10
161.5
20
-107.6999999999999886
40
0.8999999999999999
0
CIRCLE
8
WHITE
10
115.9200000000000017
20
-107.1999999999999886
40
0.5499999999999999
0
CIRCLE
8
WHITE
10
126.0799999999999983
20
-107.1999999999999886
40
0.5499999999999999
0
CIRCLE
8
WHITE
10
169.6200000000000045
20
-118.7999999999999972
40
1.5999989999999999
0
CIRCLE
8
WHITE
10
143.6157499999999914
20
-120.3870999999999896
40
1.4999989999999999
0
CIRCLE
8
WHITE
10
152.015749999999997
20
-120.3870999999999896
40
1.4999989999999999
0
CIRCLE
8
WHITE
10
152.015749999999997
20
-113.0870999999999924
40
0.8999999999999999
0
CIRCLE
8
WHITE
10
147.81574999999998
20
-113.0870999999999924
40
0.8999999999999999
0
CIRCLE
8
WHITE
10
143.6157499999999914
20
-113.0870999999999924
40
0.8999999999999999
0
CIRCLE
8
WHITE
10
126.1999999999999886
20
-98.8100000000000023
40
0.4
0
CIRCLE
8
WHITE
10
126.1999999999999886
20
-91.1899999999999977
40
0.4
0
CIRCLE
8
WHITE
10
158.9000000000000057
20
-85.8999999999999915
40
0.4
0
CIRCLE
8
WHITE
10
151.2800000000000011
20
-85.8999999999999915
40
0.4
0
CIRCLE
8
WHITE
10
108.5300000000000011
20
-118.7999999999999972
40
1.5999989999999999
0
CIRCLE
8
WHITE
10
107.2999999999999972
20
-107.8999999999999915
40
1.5999989999999999
0
CIRCLE
8
WHITE
10
107.2999999999999972
20
-82.0999999999999943
40
1.5999989999999999
0
CIRCLE
8
WHITE
10
111.5
20
-103.3999999999999915
40
0.8999999999999999
0
CIRCLE
8
WHITE
10
111.5
20
-99.1999999999999886
40
0.8999999999999999
0
CIRCLE
8
WHITE
10
111.5
20
-95.
40
0.8999999999999999
0
CIRCLE
8
WHITE
10
111.5
20
-90.7999999999999972
40
0.8999999999999999
0
CIRCLE
8
WHITE
10
111.5
20
-86.5999999999999943
40
0.8999999999999999
0
CIRCLE
8
WHITE
10
117.
20
-103.3999999999999915
40
0.8999999999999999
0
CIRCLE
8
WHITE
10
117.
20
-99.1999999999999886
40
0.8999999999999999
0
CIRCLE
8
WHITE
10
117.
20
-95.
40
0.8999999999999999
0
CIRCLE
8
WHITE
10
117.
20
-90.7999999999999972
40
0.8999999999999999
0
CIRCLE
8
WHITE
10
117.
20
-86.5999999999999943
40
0.8999999999999999
0
CIRCLE
8
WHITE
10
143.5900000000000034
20
-107.2999999999999972
40
0.4
0
CIRCLE
8
WHITE
10
151.2099999999999795
20
-107.2999999999999972
40
0.4
0
CIRCLE
8
WHITE
10
114.9699999999999989
20
-77.6199999999999903
40
1.5999989999999999
  0
ENDSEC
  0
EOF
